<svg width="200" height="101" viewBox="0 0 300 240" fill="none" xmlns="http://www.w3.org/2000/svg">
<style>
.c0{ fill: rgb(255,255,255); stroke: rgb(255,255,255);}
.c1{ fill: rgb(212,0,0); stroke: rgb(212,0,0);}
.c2{ fill: rgb(213,22,20); stroke: rgb(213,22,20);}
.c3{ fill: rgb(221,58,58); stroke: rgb(221,58,58);}
.c4{ fill: rgb(217,73,65); stroke: rgb(217,73,65);}
.c5{ fill: rgb(221,119,107); stroke: rgb(221,119,107);}
.c6{ fill: rgb(205,140,126); stroke: rgb(205,140,126);}
.c7{ fill: rgb(233,133,131); stroke: rgb(233,133,131);}
.c8{ fill: rgb(224,152,137); stroke: rgb(224,152,137);}
.c9{ fill: rgb(237,172,171); stroke: rgb(237,172,171);}
.c10{ fill: rgb(247,212,211); stroke: rgb(247,212,211);}
.c11{ fill: rgb(227,186,167); stroke: rgb(227,186,167);}
.c12{ fill: rgb(184,183,165); stroke: rgb(184,183,165);}
.c13{ fill: rgb(206,204,183); stroke: rgb(206,204,183);}
.c14{ fill: rgb(232,230,207); stroke: rgb(232,230,207);}
.c15{ fill: rgb(171,191,198); stroke: rgb(171,191,198);}
.c16{ fill: rgb(8,89,176); stroke: rgb(8,89,176);}
.c17{ fill: rgb(41,110,184); stroke: rgb(41,110,184);}
.c18{ fill: rgb(60,122,183); stroke: rgb(60,122,183);}
.c19{ fill: rgb(88,143,199); stroke: rgb(88,143,199);}
.c20{ fill: rgb(108,152,189); stroke: rgb(108,152,189);}
.c21{ fill: rgb(134,168,193); stroke: rgb(134,168,193);}
.c22{ fill: rgb(147,180,216); stroke: rgb(147,180,216);}
.c23{ fill: rgb(195,214,233); stroke: rgb(195,214,233);}
.c24{ fill: rgb(234,241,248); stroke: rgb(234,241,248);}
</style>
<g transform="scale(0.1 0.1)" stroke-width="10">
<path d="M 5, 0c 720,0 1440,0 2160,0c 200,0 400,0 600,0c 177,0 230,0 230,0c 1,1 0,203 0,260c 0,227 0,453 0,680c 0,127 0,253 0,380c 0,5 -3,57 -5,55c -1,-1 0,-203 0,-260c 0,-223 0,-447 0,-670c 0,-50 9,-180 -5,-190c -6,-4 -23,2 -30,0c -46,-15 57,8 -15,-10c -35,-9 -79,10 -115,10c -20,0 -51,6 -70,0c -46,-15 57,8 -15,-10c -11,-3 -61,-6 -70,0c -3,2 -2,8 -5,10c -16,11 -225,0 -260,0c -207,0 -413,0 -620,0c -57,0 -270,-10 -310,0c -72,18 31,-5 -15,10c -12,4 -80,7 -90,0c -3,-2 -2,-8 -5,-10c -9,-6 -59,-3 -70,0c -72,18 31,-5 -15,10c -15,5 -98,8 -110,0c -18,-12 -3,-10 -35,-10c -30,0 -143,25 -165,10c -3,-2 -2,-8 -5,-10c -7,-5 -51,-2 -60,0c -72,18 31,-5 -15,10c -32,11 -459,0 -530,0c -47,0 -337,-2 -340,0c -4,3 -5,105 -5,450c 0,143 0,287 0,430c 0,27 -8,188 0,200c 2,3 8,2 10,5c 16,24 -26,131 -10,155c 2,3 8,2 10,5c 15,22 -10,135 -10,165c 0,32 -2,17 10,35c 8,12 5,95 0,110c -5,15 -22,57 -10,75c 2,3 8,2 10,5c 12,19 -12,273 0,320c 1,4 2,8 5,10c 6,4 23,-2 30,0c 10,3 12,10 25,10c 12,0 50,7 60,0c 3,-2 2,-8 5,-10c 11,-7 87,-4 100,0c 10,3 12,10 25,10c 12,0 50,7 60,0c 3,-2 2,-8 5,-10c 12,-8 95,-5 110,0c 46,15 -57,-8 15,10c 35,9 79,-10 115,-10c 20,0 51,-6 70,0c 6,2 6,13 15,10c 20,-7 -7,-16 10,-5c 18,12 3,3 15,-5c 7,-5 104,0 120,0c 290,0 580,0 870,0c 69,0 389,10 430,0c 72,-18 -31,5 15,-10c 13,-4 89,-7 100,0c 3,2 2,8 5,10c 12,8 56,0 70,0c 13,0 15,-7 25,-10c 15,-5 98,-8 110,0c 3,2 2,8 5,10c 7,5 51,2 60,0c 72,-18 -31,5 15,-10c 30,-10 250,0 300,0c 47,0 93,0 140,0c 6,0 36,-4 40,0c 10,10 0,84 0,100c 0,36 9,142 0,170c -3,8 -318,5 -545,5c -510,0 -1020,0 -1530,0c -223,0 -447,0 -670,0c -73,0 -246,4 -250,0c -1,-1 0,-149 0,-190c 0,-167 0,-333 0,-500c 0,-600 0,-1200 0,-1800z" class="c0"/>
<path d="M 25, 270c 117,0 56,5 -5,5z" class="c24"/>
<path d="M 25, 280c 11,0 63,-7 70,0c 4,4 -9,9 -10,15c -3,13 -44,53 -25,65c 12,8 77,2 85,-10c 4,-6 1,-14 5,-20c 7,-11 22,-23 30,-35c 5,-7 -7,-21 5,-25c 12,-4 103,-7 110,0c 7,7 -36,53 -40,60c -3,5 0,27 5,30c 8,5 75,3 80,-5c 7,-10 43,-84 45,-85c 12,-4 103,-7 110,0c 2,2 -4,3 -5,5c -4,6 -1,14 -5,20c -8,11 -52,47 -25,65c 6,4 32,0 40,0c 54,0 41,-32 60,-60c 7,-11 16,-4 20,-20c 1,-3 -2,-8 0,-10c 7,-7 89,-4 100,0c 22,7 -39,62 -35,75c 1,4 7,2 10,5c 3,3 2,8 5,10c 4,3 24,0 30,0c 61,0 31,-2 50,-30c 7,-11 22,-23 30,-35c 4,-6 1,-19 10,-25c 6,-4 32,0 40,0c 17,0 44,-5 60,0c 15,5 -4,8 -5,10c -5,7 -5,28 -10,35c -5,7 -31,14 -20,30c 5,8 72,10 80,5c 3,-2 2,-7 5,-10c 58,-58 9,-70 115,-70c 6,0 36,-4 40,0c 4,4 -9,9 -10,15c -3,13 -44,53 -25,65c 4,3 24,0 30,0c 74,0 40,0 60,-30c 7,-11 22,-23 30,-35c 25,-37 -88,-7 -70,-25c 14,-14 62,7 75,10c 13,3 98,-2 100,0c 2,2 -9,33 -10,35c -10,14 -39,35 -25,45c 6,4 32,0 40,0c 81,0 36,-5 60,-40c 3,-5 12,-5 15,-10c 4,-6 1,-14 5,-20c 8,-12 105,-20 115,-10c 4,4 -9,9 -10,15c -3,12 -41,54 -25,65c 12,8 82,3 100,-25c 11,-17 24,-66 25,-65c 3,2 2,8 5,10c 14,9 80,-7 100,0c 13,4 -60,71 -25,80c 11,3 61,6 70,0c 18,-12 14,-34 25,-50c 7,-11 16,-4 20,-20c 2,-6 -5,-15 0,-20c 4,-4 9,9 15,10c 6,2 13,0 20,0c 11,0 63,-7 70,0c 2,2 -9,33 -10,35c -10,14 -39,35 -25,45c 6,4 32,0 40,0c 70,0 29,1 60,-30c 3,-3 8,-2 10,-5c 5,-7 5,-28 10,-35c 8,-12 105,-20 115,-10c 4,4 -9,9 -10,15c -3,12 -41,54 -25,65c 12,8 77,2 85,-10c 4,-6 1,-14 5,-20c 3,-5 26,-29 30,-35c 5,-7 -6,-11 5,-15c 12,-4 103,-7 110,0c 3,3 -20,20 -20,20c -6,9 -23,54 -15,60c 6,4 32,0 40,0c 61,0 31,-2 50,-30c 7,-11 22,-23 30,-35c 4,-6 1,-19 10,-25c 6,-4 32,0 40,0c 17,0 44,-5 60,0c 15,5 -4,8 -5,10c -5,7 -5,28 -10,35c -6,8 -43,37 -10,45c 11,3 61,6 70,0c 15,-10 -2,-9 5,-20c 7,-11 22,-23 30,-35c 4,-6 5,-30 10,-35c 7,-7 98,-4 110,0c 14,5 -7,10 -10,15c -4,6 -1,14 -5,20c -7,11 -22,23 -30,35c -3,4 2,18 5,20c 6,4 32,0 40,0c 70,0 49,-29 70,-60c 3,-5 12,-5 15,-10c 4,-6 0,-15 5,-20c 7,-7 89,-4 100,0c 25,8 -63,81 -25,90c 24,6 72,4 85,-15c 5,-7 5,-28 10,-35c 3,-5 12,-5 15,-10c 1,-1 20,-50 40,-30c 5,5 10,122 -10,135c -6,4 -14,1 -20,5c -5,3 -5,12 -10,15c -35,24 -40,-21 -40,60c 0,8 -4,34 0,40c 3,5 41,-9 50,-15c 3,-2 20,-30 30,-20c 10,10 2,107 -10,115c -31,20 -70,8 -70,70c 0,8 -4,34 0,40c 6,8 51,-9 60,-15c 0,0 17,-23 20,-20c 7,7 4,98 0,110c -4,11 -8,0 -15,5c -6,4 -30,27 -35,30c -6,4 -14,1 -20,5c -12,8 -18,73 -10,85c 2,3 16,8 20,5c 12,-8 24,-23 35,-30c 6,-4 14,-1 20,-5c 5,-3 5,-12 10,-15c 6,-3 5,41 5,45c 0,11 7,63 0,70c -6,6 -84,34 -90,60c -4,14 -5,61 10,65c 25,6 45,-25 65,-30c 6,-1 11,-14 15,-10c 7,7 4,98 0,110c -1,2 -75,38 -85,45c -8,5 -10,72 -5,80c 3,5 25,8 30,5c 7,-4 53,-47 60,-40c 10,10 2,107 -10,115c -6,4 -14,1 -20,5c -3,2 -7,13 -10,15c -25,17 -69,8 -50,85c 1,5 12,23 20,20c 4,-1 2,-8 5,-10c 6,-4 14,-1 20,-5c 5,-3 35,-35 45,-25c 6,6 0,51 0,60c 0,12 -3,28 0,40c 1,6 14,11 10,15c -2,2 -3,-4 -5,-5c -4,-2 -15,-9 -20,-5c -12,8 -24,23 -35,30c -7,5 -18,-1 -25,10c -7,10 -12,69 -5,80c 6,8 51,-9 60,-15c 0,0 17,-23 20,-20c 7,7 4,98 0,110c -4,11 -8,0 -15,5c -6,4 -30,27 -35,30c -6,4 -14,1 -20,5c -12,8 -18,73 -10,85c 11,16 53,-22 65,-25c 6,-1 11,-14 15,-10c 5,5 0,42 0,50c 0,17 7,54 -10,65c -6,4 -14,1 -20,5c -5,3 -5,12 -10,15c -7,5 -28,5 -35,10c -12,8 2,23 -5,30c -3,3 -50,-41 -55,-45c -6,-4 -14,-1 -20,-5c -9,-6 -16,-24 -25,-30c -13,-8 -43,-18 -55,-30c -12,-12 1,-7 -10,-15c -6,-4 -14,-1 -20,-5c -4,-3 -51,-49 -60,-55c -6,-4 -14,-1 -20,-5c -9,-6 -16,-24 -25,-30c -7,-5 -17,-2 -25,-10c -12,-12 1,-7 -10,-15c -6,-4 -14,-1 -20,-5c -9,-6 -16,-24 -25,-30c -13,-8 -43,-18 -55,-30c -12,-12 1,-7 -10,-15c -6,-4 -14,-1 -20,-5c -4,-3 -51,-49 -60,-55c -6,-4 -14,-1 -20,-5c -9,-6 -16,-24 -25,-30c -13,-8 -43,-18 -55,-30c -12,-12 1,-7 -10,-15c -6,-4 -14,-1 -20,-5c -9,-6 -16,-24 -25,-30c -7,-5 -17,-2 -25,-10c -12,-12 1,-7 -10,-15c -6,-4 -14,-1 -20,-5c -9,-6 -16,-24 -25,-30c -13,-8 -43,-18 -55,-30c -12,-12 1,-7 -10,-15c -6,-4 -14,-1 -20,-5c -4,-3 -51,-49 -60,-55c -13,-8 -39,-17 -50,-25c -9,-6 -16,-24 -25,-30c -7,-5 -17,-2 -25,-10c -12,-12 1,-7 -10,-15c -6,-4 -14,-1 -20,-5c -9,-6 -16,-24 -25,-30c -7,-5 -17,-2 -25,-10c -12,-12 1,-7 -10,-15c -6,-4 -15,0 -20,-5c -12,-12 39,-31 45,-35c 9,-6 16,-24 25,-30c 11,-8 37,-17 50,-25c 3,-2 7,-13 10,-15c 6,-4 14,-1 20,-5c 5,-3 5,-12 10,-15c 6,-4 14,-1 20,-5c 3,-2 7,-13 10,-15c 6,-4 14,-1 20,-5c 11,-8 -2,-3 10,-15c 12,-12 42,-22 55,-30c 9,-6 16,-24 25,-30c 6,-4 14,-1 20,-5c 3,-2 7,-13 10,-15c 6,-4 14,-1 20,-5c 3,-2 7,-13 10,-15c 6,-4 14,-1 20,-5c 11,-8 -2,-3 10,-15c 12,-12 42,-22 55,-30c 6,-4 11,-17 20,-20c 3,-1 7,2 10,0c 9,-6 16,-24 25,-30c 6,-4 14,-1 20,-5c 3,-2 7,-13 10,-15c 6,-4 14,-1 20,-5c 1,0 39,-34 40,-35c 6,-6 33,-10 30,-20c -1,-4 -7,-2 -10,-5c -3,-3 -1,-9 -5,-10c -9,-3 -9,8 -15,10c -7,2 -24,-4 -30,0c -12,8 -24,23 -35,30c -6,4 -14,1 -20,5c -5,3 -5,12 -10,15c -7,5 -28,5 -35,10c -12,8 -36,35 -50,40c -31,10 -29,20 -45,30c -6,4 -14,1 -20,5c -3,2 -7,13 -10,15c -7,5 -28,5 -35,10c -6,4 -11,17 -20,20c -5,2 -35,16 -40,20c -3,2 -2,8 -5,10c -6,4 -14,1 -20,5c -5,3 -5,12 -10,15c -6,4 -14,1 -20,5c -3,2 -7,13 -10,15c -6,4 -14,1 -20,5c -3,2 -7,13 -10,15c -7,5 -28,5 -35,10c -6,4 -11,17 -20,20c -5,2 -35,16 -40,20c -3,2 -2,8 -5,10c -6,4 -14,1 -20,5c -3,2 -7,13 -10,15c -6,4 -14,1 -20,5c -3,2 -7,13 -10,15c -6,4 -14,1 -20,5c -3,2 -7,13 -10,15c -7,5 -28,5 -35,10c -6,4 -11,17 -20,20c -17,6 -53,38 -60,40c -3,1 -7,-2 -10,0c -3,2 -2,8 -5,10c -6,4 -14,1 -20,5c -5,3 -5,12 -10,15c -11,7 -36,4 -45,10c -3,2 -2,8 -5,10c -9,6 -69,4 -80,0c -18,-6 -52,-17 -65,-30c -3,-3 -2,-8 -5,-10c -7,-5 -17,-2 -25,-10c -3,-3 -2,-8 -5,-10c -7,-5 -28,-5 -35,-10c -5,-3 -5,-12 -10,-15c -6,-4 -14,-1 -20,-5c -3,-2 -7,-13 -10,-15c -6,-4 -14,-1 -20,-5c -5,-3 -5,-12 -10,-15c -6,-4 -14,-1 -20,-5c -11,-7 -23,-22 -35,-30c -7,-5 -28,-5 -35,-10c -2,-1 -36,-32 -40,-35c -6,-4 -14,-1 -20,-5c -3,-2 -2,-8 -5,-10c -5,-4 -35,-18 -40,-20c -9,-3 -14,-16 -20,-20c -7,-5 -28,-5 -35,-10c -3,-2 -7,-13 -10,-15c -6,-4 -14,-1 -20,-5c -3,-2 -2,-8 -5,-10c -5,-4 -35,-18 -40,-20c -9,-3 -14,-16 -20,-20c -7,-5 -28,-5 -35,-10c -5,-3 -5,-12 -10,-15c -6,-4 -14,-1 -20,-5c -5,-3 -5,-12 -10,-15c -6,-4 -14,-1 -20,-5c -11,-7 -23,-22 -35,-30c -7,-5 -28,-5 -35,-10c -3,-2 -7,-13 -10,-15c -12,-8 -24,-11 -35,-15c -7,-2 -68,-52 -75,-50c -4,1 -2,8 -5,10c -2,1 -16,-16 -25,-10c -27,18 29,34 45,45c 9,6 16,24 25,30c 7,5 17,2 25,10c 0,0 63,48 65,50c 7,5 17,2 25,10c 24,24 12,8 30,20c 3,2 7,13 10,15c 6,4 14,1 20,5c 3,2 7,13 10,15c 6,4 14,1 20,5c 9,6 16,24 25,30c 3,2 7,-1 10,0c 9,3 14,16 20,20c 13,8 43,18 55,30c 12,12 -1,7 10,15c 6,4 14,1 20,5c 3,2 7,13 10,15c 6,4 14,1 20,5c 3,2 7,13 10,15c 6,4 14,1 20,5c 3,2 7,13 10,15c 13,8 39,17 50,25c 9,6 16,24 25,30c 8,5 55,21 45,35c -9,14 -35,23 -45,30c -9,6 -16,24 -25,30c -6,4 -14,1 -20,5c -11,8 2,3 -10,15c -8,8 -18,5 -25,10c -9,6 -16,24 -25,30c -6,4 -14,1 -20,5c -11,8 2,3 -10,15c -8,8 -18,5 -25,10c -9,6 -16,24 -25,30c -11,8 -37,17 -50,25c -12,8 -19,28 -30,35c -6,4 -14,1 -20,5c -11,8 2,3 -10,15c -8,8 -18,5 -25,10c -9,6 -16,24 -25,30c -6,4 -14,1 -20,5c -9,6 -56,52 -60,55c -6,4 -14,1 -20,5c -9,6 -56,52 -60,55c -6,4 -14,1 -20,5c -9,6 -56,52 -60,55c -6,4 -14,1 -20,5c -9,6 -56,52 -60,55c -6,4 -14,1 -20,5c -11,8 2,3 -10,15c -8,8 -18,5 -25,10c -9,6 -16,24 -25,30c -6,4 -14,1 -20,5c -9,6 -56,52 -60,55c -6,4 -14,1 -20,5c -11,8 2,3 -10,15c -8,8 -18,5 -25,10c -9,6 -16,24 -25,30c -11,8 -37,17 -50,25c -12,8 -19,28 -30,35c -3,2 -38,20 -40,20c -6,1 -11,14 -15,10c -5,-5 9,-70 -20,-60c -2,1 -60,50 -70,40c -7,-7 -4,-89 0,-100c 4,-11 8,0 15,-5c 6,-4 30,-27 35,-30c 6,-4 14,-1 20,-5c 12,-8 18,-73 10,-85c -12,-19 -52,22 -65,25c -6,1 -11,14 -15,10c -4,-4 0,-34 0,-40c 0,-28 -9,-74 25,-85c 3,-1 7,2 10,0c 3,-2 2,-8 5,-10c 7,-5 28,-5 35,-10c 9,-6 11,-81 5,-90c -3,-5 -41,9 -50,15c -3,2 -20,30 -30,20c -6,-6 0,-51 0,-60c 0,-12 3,-28 0,-40c -1,-6 -14,-11 -10,-15c 4,-4 9,12 15,10c 4,-1 2,-8 5,-10c 7,-5 28,-5 35,-10c 6,-4 11,-17 20,-20c 3,-1 7,2 10,0c 8,-5 10,-72 5,-80c -15,-22 -73,40 -80,20c -8,-23 13,-70 0,-90c -2,-3 -8,-2 -10,-5c -4,-7 24,-4 25,-5c 12,-8 24,-23 35,-30c 6,-4 14,-1 20,-5c 12,-8 18,-73 10,-85c -15,-23 -80,42 -85,45c -2,1 -6,-3 -5,-5c 2,-3 8,-2 10,-5c 9,-14 -7,-80 0,-100c 10,-30 62,-32 80,-60c 5,-8 3,-75 -5,-80c -16,-11 -23,15 -30,20c -6,4 -14,1 -20,5c -5,3 -18,30 -25,10c -5,-16 0,-43 0,-60c 0,-8 -4,-34 0,-40c 6,-9 19,-6 25,-10c 12,-8 24,-23 35,-30c 11,-7 10,10 20,-5c 6,-9 3,-59 0,-70c -11,-42 -65,35 -80,20c -7,-7 0,-59 0,-70c 0,-7 2,-14 0,-20c -1,-6 -14,-11 -10,-15c 5,-5 14,2 20,0c 11,-3 42,-35 50,-40c 11,-7 10,10 20,-5c 6,-9 3,-59 0,-70c -9,-35 -76,38 -80,25c -4,-13 -7,-89 0,-100c 24,-37 80,-23 80,-80c 0,-7 4,-14 0,-20c -2,-2 -24,-27 -30,-25c -4,1 -2,8 -5,10c -7,5 -28,5 -35,10c 0,0 -17,23 -20,20c -4,-4 9,-9 10,-15c 5,-18 -2,-3 -10,-15c -5,-8 0,-112 0,-130z" class="c14"/>
<path d="M 25, 420c 0,6 -5,28 -5,5z" class="c24"/>
<path d="M 25, 450c 0,76 -5,88 -5,5z" class="c4"/>
<path d="M 25, 520c -2,2 -3,3 -5,5z" class="c11"/>
<path d="M 25, 530c 0,30 0,60 0,90c 0,5 -1,19 -5,15c -10,-10 0,-84 0,-100z" class="c24"/>
<path d="M 25, 640c -2,2 -3,3 -5,5z" class="c23"/>
<path d="M 25, 650c 0,45 -5,90 -5,5z" class="c20"/>
<path d="M 25, 710c -2,2 -3,3 -5,5z" class="c21"/>
<path d="M 25, 730c 0,30 0,60 0,90c 0,5 -1,19 -5,15c -10,-10 0,-84 0,-100z" class="c24"/>
<path d="M 25, 840c -2,2 -3,3 -5,5z" class="c9"/>
<path d="M 25, 850c 0,45 -5,90 -5,5z" class="c7"/>
<path d="M 25, 910c -2,2 -3,3 -5,5z" class="c8"/>
<path d="M 25, 920c 0,31 10,81 0,110c -11,33 -5,-70 -5,-105z" class="c24"/>
<path d="M 25, 1040c 2,-3 2,-8 5,-10c 2,-1 6,3 5,5c -2,3 -8,2 -10,5c -2,2 -2,68 -5,65c -6,-6 0,-51 0,-60z" class="c22"/>
<path d="M 25, 1110c 23,0 1,5 -5,5z" class="c23"/>
<path d="M 25, 1120c 0,30 0,60 0,90c 0,5 -1,19 -5,15c -10,-10 0,-84 0,-100z" class="c24"/>
<path d="M 25, 1240c 0,76 -5,88 -5,5z" class="c9"/>
<path d="M 25, 1320c 0,21 -5,34 -5,5z" class="c24"/>
<path d="M 25, 1430c -2,2 -3,3 -5,5z" class="c24"/>
<path d="M 25, 1440c 0,45 -5,90 -5,5z" class="c23"/>
<path d="M 25, 1630c 0,76 -5,88 -5,5z" class="c10"/>
<path d="M 25, 1700c -2,2 -3,3 -5,5z" class="c24"/>
<path d="M 25, 1830c 0,76 -5,88 -5,5z" class="c24"/>
<path d="M 35, 440c -2,2 -3,3 -5,5z" class="c7"/>
<path d="M 35, 450c 11,0 43,-37 60,-20c 5,5 0,13 0,20c 0,7 2,14 0,20c -1,3 -57,36 -60,35c -10,-3 -5,-36 -5,-45z" class="c1"/>
<path d="M 35, 510c -2,2 -3,3 -5,5z" class="c3"/>
<path d="M 35, 520c -2,2 -3,3 -5,5z" class="c10"/>
<path d="M 35, 640c -2,2 -3,3 -5,5z" class="c18"/>
<path d="M 35, 650c 4,-9 36,-28 45,-30c 6,-1 11,-14 15,-10c 3,3 2,45 0,50c -4,11 -61,49 -65,45c -5,-5 0,-42 0,-50z" class="c16"/>
<path d="M 35, 710c -2,2 -3,3 -5,5z" class="c19"/>
<path d="M 35, 830c -2,2 -3,3 -5,5z" class="c13"/>
<path d="M 35, 840c -2,2 -3,3 -5,5z" class="c2"/>
<path d="M 35, 850c 4,-9 56,-44 60,-40c 3,3 2,45 0,50c -5,15 -37,22 -50,35c -25,25 -15,-23 -15,-40z" class="c1"/>
<path d="M 35, 910c -2,2 -3,3 -5,5z" class="c9"/>
<path d="M 35, 1040c 15,0 42,-34 55,-30c 7,2 10,50 5,55c -5,5 -14,1 -20,5c -5,3 -35,35 -45,25c -5,-5 0,-42 0,-50z" class="c16"/>
<path d="M 35, 1100c -2,2 -3,3 -5,5z" class="c17"/>
<path d="M 35, 1230c -2,2 -3,3 -5,5z" class="c4"/>
<path d="M 35, 1240c 25,0 55,-45 60,-40c 3,3 2,45 0,50c -6,19 -37,32 -50,35c -6,1 -11,14 -15,10c -5,-5 0,-42 0,-50z" class="c1"/>
<path d="M 35, 1300c -2,2 -3,3 -5,5z" class="c4"/>
<path d="M 35, 1420c -2,2 -3,3 -5,5z" class="c23"/>
<path d="M 35, 1430c -2,2 -3,3 -5,5z" class="c17"/>
<path d="M 35, 1440c 4,-9 56,-44 60,-40c 3,3 2,45 0,50c -2,7 -62,48 -65,45c -5,-5 0,-42 0,-50z" class="c16"/>
<path d="M 35, 1500c -2,2 -3,3 -5,5z" class="c22"/>
<path d="M 35, 1620c -2,2 -3,3 -5,5z" class="c11"/>
<path d="M 35, 1630c 15,0 44,-34 55,-30c 7,2 10,50 5,55c -5,5 -14,1 -20,5c -5,3 -35,35 -45,25c -5,-5 0,-42 0,-50z" class="c1"/>
<path d="M 35, 1690c -2,2 -3,3 -5,5z" class="c2"/>
<path d="M 35, 1700c -2,2 -3,3 -5,5z" class="c11"/>
<path d="M 35, 1820c -2,2 -3,3 -5,5z" class="c20"/>
<path d="M 35, 1830c 8,-16 27,-11 40,-20c 6,-4 9,-11 15,-15c 2,-1 3,-7 5,-5c 4,4 2,54 0,60c -1,3 -57,36 -60,35c -10,-3 -5,-36 -5,-45z" class="c16"/>
<path d="M 35, 1890c -2,2 -3,3 -5,5z" class="c17"/>
<path d="M 35, 2010c -2,2 -3,3 -5,5z" class="c10"/>
<path d="M 35, 2020c -2,2 -3,3 -5,5z" class="c3"/>
<path d="M 35, 2030c 4,-9 36,-28 45,-30c 6,-1 11,-14 15,-10c 3,3 2,45 0,50c -4,11 -61,49 -65,45c -5,-5 0,-42 0,-50z" class="c1"/>
<path d="M 35, 2090c -2,2 -3,3 -5,5z" class="c5"/>
<path d="M 35, 2100c 5,0 23,-11 20,-5c -3,5 -12,5 -15,10c -4,6 0,15 -5,20c -4,4 -5,-10 -5,-15z" class="c14"/>
<path d="M 35, 2130c 3,-5 24,-49 25,-50c 5,-5 29,-6 35,-10c 16,-11 16,-27 25,-40c 6,-9 19,-6 25,-10c 14,-10 42,-37 55,-50c 12,-12 42,-22 55,-30c 9,-6 16,-24 25,-30c 6,-4 14,-1 20,-5c 11,-8 -2,-3 10,-15c 8,-8 18,-5 25,-10c 9,-6 16,-24 25,-30c 6,-4 14,-1 20,-5c 9,-6 56,-52 60,-55c 6,-4 14,-1 20,-5c 9,-6 56,-52 60,-55c 6,-4 14,-1 20,-5c 9,-6 56,-52 60,-55c 6,-4 14,-1 20,-5c 11,-8 -2,-3 10,-15c 8,-8 18,-5 25,-10c 9,-6 16,-24 25,-30c 6,-4 14,-1 20,-5c 9,-6 56,-52 60,-55c 6,-4 14,-1 20,-5c 9,-6 56,-52 60,-55c 6,-4 14,-1 20,-5c 7,-5 52,-47 60,-55c 12,-12 42,-22 55,-30c 9,-6 16,-24 25,-30c 6,-4 14,-1 20,-5c 9,-6 56,-52 60,-55c 6,-4 14,-1 20,-5c 11,-8 -2,-3 10,-15c 8,-8 18,-5 25,-10c 9,-6 16,-24 25,-30c 16,-10 44,-16 50,-40c 5,-20 -12,-10 -20,-15c -5,-3 -5,-12 -10,-15c -6,-4 -14,-1 -20,-5c -9,-6 -16,-24 -25,-30c -3,-2 -7,1 -10,0c -9,-3 -14,-16 -20,-20c -3,-2 -7,1 -10,0c -4,-1 -72,-54 -90,-60c -13,-4 -15,-18 -25,-25c -6,-4 -14,-1 -20,-5c -5,-3 -5,-12 -10,-15c -6,-4 -14,-1 -20,-5c -3,-2 -7,-13 -10,-15c -6,-4 -14,-1 -20,-5c -9,-6 -16,-24 -25,-30c -3,-2 -7,1 -10,0c -9,-3 -14,-16 -20,-20c -13,-8 -43,-18 -55,-30c -12,-12 1,-7 -10,-15c -6,-4 -14,-1 -20,-5c -5,-3 -5,-12 -10,-15c -6,-4 -14,-1 -20,-5c -5,-3 -5,-12 -10,-15c -6,-4 -14,-1 -20,-5c -5,-3 -5,-12 -10,-15c -6,-4 -14,-1 -20,-5c -9,-6 -16,-24 -25,-30c -6,-4 -57,-23 -45,-35c 9,-9 17,13 25,10c 4,-1 2,-8 5,-10c 5,-3 9,9 15,10c 3,1 7,-2 10,0c 2,1 36,32 40,35c 6,4 14,1 20,5c 11,7 23,22 35,30c 7,5 28,5 35,10c 3,2 7,13 10,15c 6,4 14,1 20,5c 11,7 23,22 35,30c 3,2 7,-1 10,0c 9,3 14,16 20,20c 7,5 28,5 35,10c 2,1 36,32 40,35c 6,4 14,1 20,5c 11,7 23,22 35,30c 7,5 28,5 35,10c 3,2 7,13 10,15c 6,4 14,1 20,5c 3,2 7,13 10,15c 6,4 14,1 20,5c 3,2 2,8 5,10c 5,4 35,18 40,20c 9,3 14,16 20,20c 7,5 28,5 35,10c 5,3 29,26 35,30c 6,4 19,1 25,10c 13,19 -45,35 -50,50c -4,13 11,10 15,10c 22,0 16,-11 30,-20c 6,-4 14,-1 20,-5c 3,-2 11,-12 10,-15c -1,-4 -8,-2 -10,-5c -1,-2 3,-6 5,-5c 5,3 5,12 10,15c 6,4 14,1 20,5c 3,2 7,13 10,15c 6,4 14,1 20,5c 3,2 2,8 5,10c 5,4 35,18 40,20c 9,3 14,16 20,20c 11,7 36,4 45,10c 3,2 2,8 5,10c 10,7 68,3 80,0c 15,-4 49,-17 60,-25c 3,-2 7,-13 10,-15c 7,-5 28,-5 35,-10c 6,-4 11,-17 20,-20c 3,-1 7,2 10,0c 5,-3 48,-42 50,-40c 5,5 1,14 5,20c 5,8 43,38 55,30c 25,-16 -11,-22 -15,-25c -3,-2 -7,-13 -10,-15c -2,-1 -23,-17 -20,-20c 5,-5 14,-1 20,-5c 3,-2 7,-13 10,-15c 6,-4 14,-1 20,-5c 4,-3 38,-34 40,-35c 7,-5 28,-5 35,-10c 6,-4 11,-17 20,-20c 5,-2 35,-16 40,-20c 3,-2 2,-8 5,-10c 6,-4 14,-1 20,-5c 5,-3 5,-12 10,-15c 6,-4 14,-1 20,-5c 3,-2 7,-13 10,-15c 6,-4 14,-1 20,-5c 3,-2 7,-13 10,-15c 7,-5 28,-5 35,-10c 6,-4 11,-17 20,-20c 5,-2 35,-16 40,-20c 3,-2 2,-8 5,-10c 6,-4 14,-1 20,-5c 4,-3 38,-34 40,-35c 7,-5 28,-5 35,-10c 6,-4 11,-17 20,-20c 5,-2 35,-16 40,-20c 3,-2 2,-8 5,-10c 6,-4 14,-1 20,-5c 3,-2 7,-13 10,-15c 7,-5 28,-5 35,-10c 6,-4 11,-17 20,-20c 7,-2 24,4 30,0c 4,-3 11,-17 20,0c 2,3 -41,22 -45,25c -9,6 -16,24 -25,30c -11,8 -37,17 -50,25c -11,8 2,3 -10,15c -12,12 -42,22 -55,30c -6,4 -11,17 -20,20c -3,1 -7,-2 -10,0c -9,6 -16,24 -25,30c -6,4 -14,1 -20,5c -5,3 -5,12 -10,15c -6,4 -14,1 -20,5c -5,3 -5,12 -10,15c -6,4 -14,1 -20,5c -11,8 2,3 -10,15c -12,12 -42,22 -55,30c -9,6 -16,24 -25,30c -6,4 -14,1 -20,5c -3,2 -7,13 -10,15c -6,4 -14,1 -20,5c -3,2 -7,13 -10,15c -6,4 -14,1 -20,5c -5,3 -5,12 -10,15c -6,4 -14,1 -20,5c -5,3 -5,12 -10,15c -6,4 -14,1 -20,5c -11,8 2,3 -10,15c -12,12 -42,22 -55,30c -3,2 -8,16 -5,20c 10,15 9,-2 20,5c 9,6 16,24 25,30c 7,5 17,2 25,10c 12,12 -1,7 10,15c 6,4 14,1 20,5c 4,3 51,49 60,55c 13,8 39,17 50,25c 4,3 51,49 60,55c 6,4 14,1 20,5c 9,6 16,24 25,30c 13,8 43,18 55,30c 12,12 -1,7 10,15c 6,4 14,1 20,5c 4,3 51,49 60,55c 6,4 14,1 20,5c 9,6 16,24 25,30c 13,8 43,18 55,30c 12,12 -1,7 10,15c 6,4 14,1 20,5c 9,6 16,24 25,30c 7,5 17,2 25,10c 12,12 -1,7 10,15c 6,4 14,1 20,5c 9,6 16,24 25,30c 13,8 43,18 55,30c 12,12 -1,7 10,15c 6,4 14,1 20,5c 9,6 16,24 25,30c 7,5 17,2 25,10c 12,12 -1,7 10,15c 6,4 14,1 20,5c 4,3 51,49 60,55c 6,4 14,1 20,5c 9,6 16,24 25,30c 13,8 43,18 55,30c 12,12 -1,7 10,15c 6,4 14,1 20,5c 9,6 16,24 25,30c 4,3 51,19 35,35c -10,10 -27,-18 -30,-20c -7,-5 -17,-2 -25,-10c -12,-12 1,-7 -10,-15c -6,-4 -14,-1 -20,-5c -9,-6 -16,-24 -25,-30c -7,-5 -17,-2 -25,-10c -12,-12 1,-7 -10,-15c -6,-4 -14,-1 -20,-5c -9,-6 -16,-24 -25,-30c -13,-8 -43,-18 -55,-30c -12,-12 1,-7 -10,-15c -6,-4 -14,-1 -20,-5c -4,-3 -51,-49 -60,-55c -6,-4 -14,-1 -20,-5c -4,-3 -51,-49 -60,-55c -13,-8 -39,-17 -50,-25c -9,-6 -16,-24 -25,-30c -7,-5 -17,-2 -25,-10c -12,-12 1,-7 -10,-15c -6,-4 -14,-1 -20,-5c -9,-6 -16,-24 -25,-30c -13,-8 -43,-18 -55,-30c -12,-12 1,-7 -10,-15c -6,-4 -14,-1 -20,-5c -4,-3 -51,-49 -60,-55c -6,-4 -14,-1 -20,-5c -9,-6 -16,-24 -25,-30c -13,-8 -43,-18 -55,-30c -12,-12 1,-7 -10,-15c -6,-4 -14,-1 -20,-5c -9,-6 -16,-24 -25,-30c -7,-5 -17,-2 -25,-10c -12,-12 1,-7 -10,-15c -6,-4 -14,-1 -20,-5c -4,-3 -51,-49 -60,-55c -13,-8 -39,-17 -50,-25c -9,-6 -16,-24 -25,-30c -3,-2 -7,1 -10,0c -10,-3 -41,-34 -50,-40c -20,-13 -30,14 -40,20c -6,4 -14,1 -20,5c -5,3 -5,12 -10,15c -6,4 -14,1 -20,5c -3,2 -7,13 -10,15c -6,4 -14,1 -20,5c -11,8 2,3 -10,15c -8,8 -18,5 -25,10c -6,4 -11,17 -20,20c -5,2 -35,16 -40,20c -3,2 -2,8 -5,10c -6,4 -23,-2 -30,0c -14,3 -39,21 -55,10c -3,-2 -2,-8 -5,-10c -6,-4 -23,2 -30,0c -9,-3 -14,-16 -20,-20c -3,-2 -7,1 -10,0c -4,-1 -72,-54 -90,-60c -13,-4 -15,-18 -25,-25c -6,-4 -14,-1 -20,-5c -5,-3 -29,-26 -35,-30c -6,-4 -14,-2 -20,0c -15,4 -11,11 -20,20c -8,8 -18,5 -25,10c -9,6 -16,24 -25,30c -6,4 -14,1 -20,5c -12,8 -19,28 -30,35c -11,8 -37,17 -50,25c -12,8 -19,28 -30,35c -6,4 -14,1 -20,5c -11,8 2,3 -10,15c -8,8 -18,5 -25,10c -9,6 -16,24 -25,30c -11,8 -37,17 -50,25c -9,6 -56,52 -60,55c -6,4 -14,1 -20,5c -11,8 2,3 -10,15c -8,8 -18,5 -25,10c -9,6 -16,24 -25,30c -6,4 -14,1 -20,5c -12,8 -19,28 -30,35c -11,8 -37,17 -50,25c -12,8 -19,28 -30,35c -6,4 -14,1 -20,5c -11,8 2,3 -10,15c -12,12 -42,22 -55,30c -9,6 -16,24 -25,30c -6,4 -14,1 -20,5c -11,8 2,3 -10,15c -8,8 -18,5 -25,10c -9,6 -16,24 -25,30c -6,4 -14,1 -20,5c -12,8 -19,28 -30,35c -6,4 -14,1 -20,5c -5,3 -5,12 -10,15c -6,4 -14,1 -20,5c -11,8 2,3 -10,15c -8,8 -18,5 -25,10c -9,6 -16,24 -25,30c -6,4 -14,1 -20,5c -12,8 -19,28 -30,35c -6,4 -14,1 -20,5c -3,2 -7,13 -10,15c -6,4 -14,1 -20,5c -11,8 2,3 -10,15c -8,8 -18,5 -25,10c -9,6 -16,24 -25,30c -6,4 -14,1 -20,5c -7,5 -40,38 -45,45c -3,4 -19,41 -20,40c -5,-5 0,-13 0,-20z" class="c13"/>
<path d="M 35, 2160c 12,-24 39,-73 65,-90c 6,-4 14,-1 20,-5c 10,-7 12,-21 25,-25c 3,-1 7,2 10,0c 9,-6 16,-24 25,-30c 6,-4 14,-1 20,-5c 5,-3 5,-12 10,-15c 6,-4 14,-1 20,-5c 12,-8 19,-28 30,-35c 6,-4 14,-1 20,-5c 9,-6 56,-52 60,-55c 11,-8 37,-17 50,-25c 12,-8 19,-28 30,-35c 6,-4 14,-1 20,-5c 11,-8 -2,-3 10,-15c 8,-8 18,-5 25,-10c 9,-6 16,-24 25,-30c 6,-4 14,-1 20,-5c 11,-8 -2,-3 10,-15c 12,-12 42,-22 55,-30c 9,-6 16,-24 25,-30c 6,-4 14,-1 20,-5c 12,-8 19,-28 30,-35c 11,-8 37,-17 50,-25c 12,-8 19,-28 30,-35c 6,-4 14,-1 20,-5c 9,-6 56,-52 60,-55c 6,-4 14,-1 20,-5c 9,-6 56,-52 60,-55c 6,-4 14,-1 20,-5c 3,-2 7,-13 10,-15c 6,-4 14,-1 20,-5c 11,-8 -2,-3 10,-15c 8,-8 18,-5 25,-10c 9,-6 16,-24 25,-30c 6,-4 14,-1 20,-5c 12,-8 19,-28 30,-35c 11,-8 37,-17 50,-25c 12,-8 19,-28 30,-35c 6,-4 14,-1 20,-5c 11,-8 -2,-3 10,-15c 8,-8 18,-5 25,-10c 9,-6 16,-24 25,-30c 7,-5 40,6 45,10c 3,2 7,13 10,15c 6,4 14,1 20,5c 9,6 16,24 25,30c 3,2 7,-1 10,0c 4,1 72,54 90,60c 9,3 14,16 20,20c 6,4 23,-2 30,0c 12,4 40,20 55,10c 3,-2 2,-8 5,-10c 12,-8 41,-1 55,-10c 6,-4 11,-17 20,-20c 5,-2 35,-16 40,-20c 9,-6 16,-24 25,-30c 6,-4 14,-1 20,-5c 4,-3 38,-34 40,-35c 6,-4 14,-1 20,-5c 3,-2 7,-13 10,-15c 6,-4 14,-2 20,0c 24,8 31,27 50,40c 7,5 17,2 25,10c 12,12 -1,7 10,15c 13,8 39,17 50,25c 9,6 16,24 25,30c 7,5 17,2 25,10c 12,12 -1,7 10,15c 6,4 14,1 20,5c 9,6 16,24 25,30c 7,5 17,2 25,10c 12,12 -1,7 10,15c 6,4 14,1 20,5c 9,6 16,24 25,30c 13,8 43,18 55,30c 12,12 -1,7 10,15c 6,4 14,1 20,5c 4,3 51,49 60,55c 6,4 14,1 20,5c 9,6 16,24 25,30c 13,8 43,18 55,30c 12,12 -1,7 10,15c 6,4 14,1 20,5c 4,3 51,49 60,55c 13,8 39,17 50,25c 4,3 51,49 60,55c 6,4 14,1 20,5c 9,6 16,24 25,30c 7,5 17,2 25,10c 12,12 -1,7 10,15c 6,4 14,1 20,5c 9,6 16,24 25,30c 13,8 43,18 55,30c 12,12 -1,7 10,15c 6,4 14,1 20,5c 9,6 16,24 25,30c 7,5 17,2 25,10c 12,12 -1,7 10,15c 6,4 14,1 20,5c 9,6 16,24 25,30c 3,2 7,-1 10,0c 9,3 14,16 20,20c 7,5 11,-6 15,5c 1,3 -2,7 0,10c 10,15 9,-2 20,5c 8,5 55,63 60,70c 5,8 3,61 0,70c -2,7 -70,10 -75,5c -2,-2 4,-3 5,-5c 4,-6 1,-14 5,-20c 8,-11 52,-47 25,-65c -6,-4 -32,0 -40,0c -54,0 -41,32 -60,60c -7,11 -16,4 -20,20c -1,3 2,8 0,10c -7,7 -103,2 -105,-5c -7,-20 62,-60 25,-85c -4,-3 -24,0 -30,0c -45,0 -38,13 -50,30c -3,5 -26,29 -30,35c -4,6 -1,19 -10,25c -11,7 -87,4 -100,0c -17,-6 39,-62 35,-75c -3,-8 -73,-9 -80,-5c -28,18 -30,70 -60,80c -11,4 -93,7 -100,0c -4,-4 9,-9 10,-15c 3,-13 44,-53 25,-65c -12,-8 -77,-2 -85,10c -4,6 -1,14 -5,20c -3,5 -26,29 -30,35c -5,7 6,11 -5,15c -16,5 -43,0 -60,0c -6,0 -36,4 -40,0c -10,-10 39,-68 40,-70c 1,-4 -2,-8 -5,-10c -6,-4 -32,0 -40,0c -81,0 -36,5 -60,40c -3,5 -12,5 -15,10c -4,6 -1,14 -5,20c -8,12 -105,20 -115,10c -4,-4 9,-9 10,-15c 3,-10 35,-58 25,-65c -4,-3 -24,0 -30,0c -96,0 -49,46 -100,80c -13,9 -63,0 -80,0c -7,0 -14,-2 -20,0c -6,1 -11,14 -15,10c -3,-3 20,-20 20,-20c 2,-3 -1,-7 0,-10c 4,-11 51,-52 20,-60c -11,-3 -61,-6 -70,0c -18,12 -14,34 -25,50c -7,11 -16,4 -20,20c -2,6 5,15 0,20c -4,4 -9,-9 -15,-10c -6,-2 -13,0 -20,0c -11,0 -63,7 -70,0c -14,-14 42,-57 30,-75c -5,-8 -72,-10 -80,-5c -15,10 2,9 -5,20c -3,5 -26,29 -30,35c -4,6 -1,19 -10,25c -11,7 -87,4 -100,0c -11,-4 49,-74 25,-80c -11,-3 -61,-6 -70,0c -9,6 -12,17 -15,25c -3,9 -16,14 -20,20c -4,6 -5,30 -10,35c -7,7 -98,4 -110,0c -13,-4 46,-59 35,-75c -5,-8 -72,-10 -80,-5c -11,8 -38,69 -45,80c -8,12 -105,20 -115,10c -7,-7 36,-53 40,-60c 3,-5 0,-27 -5,-30c -8,-5 -75,-3 -80,5c -7,10 -43,84 -45,85c -12,4 -103,7 -110,0c -2,-2 4,-3 5,-5c 4,-6 1,-14 5,-20c 8,-11 52,-47 25,-65c -6,-4 -32,0 -40,0c -54,0 -41,32 -60,60c -7,11 -16,4 -20,20c -1,3 2,8 0,10c -7,7 -89,4 -100,0c -22,-7 39,-62 35,-75c -1,-4 -7,-2 -10,-5c -3,-3 -2,-8 -5,-10c -4,-3 -24,0 -30,0c -61,0 -31,2 -50,30c -7,11 -22,23 -30,35c -4,6 -1,19 -10,25c -6,4 -32,0 -40,0c -17,0 -44,5 -60,0c -15,-5 4,-8 5,-10c 5,-7 5,-28 10,-35c 6,-10 33,-20 20,-40c -5,-8 -63,-10 -70,-5c -8,5 -30,27 -35,35c -6,10 -16,52 -25,55c -12,4 -103,7 -110,0c -4,-4 9,-9 10,-15c 3,-13 44,-53 25,-65c -4,-3 -24,0 -30,0c -16,0 -36,-4 -50,5c -6,4 -38,73 -45,75c -42,14 -30,-33 -30,-60z" class="c14"/>
<path d="M 45, 430c -2,2 -3,3 -5,5z" class="c13"/>
<path d="M 45, 440c -2,2 -3,3 -5,5z" class="c2"/>
<path d="M 45, 510c -2,2 -3,3 -5,5z" class="c9"/>
<path d="M 45, 630c -2,2 -3,3 -5,5z" class="c22"/>
<path d="M 45, 700c -2,2 -3,3 -5,5z" class="c17"/>
<path d="M 45, 710c -2,2 -3,3 -5,5z" class="c23"/>
<path d="M 45, 830c -2,2 -3,3 -5,5z" class="c4"/>
<path d="M 45, 900c -2,2 -3,3 -5,5z" class="c4"/>
<path d="M 45, 1030c -2,2 -3,3 -5,5z" class="c17"/>
<path d="M 45, 1100c -2,2 -3,3 -5,5z" class="c21"/>
<path d="M 45, 1220c -2,2 -3,3 -5,5z" class="c9"/>
<path d="M 45, 1230c -2,2 -3,3 -5,5z" class="c2"/>
<path d="M 45, 1290c -2,2 -3,3 -5,5z" class="c2"/>
<path d="M 45, 1300c -2,2 -3,3 -5,5z" class="c11"/>
<path d="M 45, 1420c -2,2 -3,3 -5,5z" class="c20"/>
<path d="M 45, 1490c -2,2 -3,3 -5,5z" class="c18"/>
<path d="M 45, 1620c -2,2 -3,3 -5,5z" class="c3"/>
<path d="M 45, 1690c -2,2 -3,3 -5,5z" class="c5"/>
<path d="M 45, 1810c -2,2 -3,3 -5,5z" class="c13"/>
<path d="M 45, 1890c -2,2 -3,3 -5,5z" class="c15"/>
<path d="M 45, 2010c -2,2 -3,3 -5,5z" class="c7"/>
<path d="M 45, 2080c -2,2 -3,3 -5,5z" class="c2"/>
<path d="M 45, 2090c -2,2 -3,3 -5,5z" class="c13"/>
<path d="M 55, 430c -2,2 -3,3 -5,5z" class="c4"/>
<path d="M 55, 500c -2,2 -3,3 -5,5z" class="c4"/>
<path d="M 55, 630c -2,2 -3,3 -5,5z" class="c17"/>
<path d="M 55, 700c -2,2 -3,3 -5,5z" class="c22"/>
<path d="M 55, 820c -2,2 -3,3 -5,5z" class="c9"/>
<path d="M 55, 890c -2,2 -3,3 -5,5z" class="c2"/>
<path d="M 55, 900c -2,2 -3,3 -5,5z" class="c11"/>
<path d="M 55, 1020c -2,2 -3,3 -5,5z" class="c20"/>
<path d="M 55, 1090c -2,2 -3,3 -5,5z" class="c18"/>
<path d="M 55, 1220c -2,2 -3,3 -5,5z" class="c3"/>
<path d="M 55, 1290c -2,2 -3,3 -5,5z" class="c5"/>
<path d="M 55, 1410c -2,2 -3,3 -5,5z" class="c13"/>
<path d="M 55, 1490c -2,2 -3,3 -5,5z" class="c15"/>
<path d="M 55, 1610c -2,2 -3,3 -5,5z" class="c5"/>
<path d="M 55, 1680c -2,2 -3,3 -5,5z" class="c2"/>
<path d="M 55, 1810c -2,2 -3,3 -5,5z" class="c18"/>
<path d="M 55, 1880c -2,2 -3,3 -5,5z" class="c20"/>
<path d="M 55, 2000c -2,2 -3,3 -5,5z" class="c10"/>
<path d="M 55, 2010c -2,2 -3,3 -5,5z" class="c2"/>
<path d="M 55, 2080c -2,2 -3,3 -5,5z" class="c8"/>
<path d="M 65, 340c 2,3 2,8 5,10c 2,1 59,1 55,5c -12,12 -54,-5 -65,-10z" class="c15"/>
<path d="M 65, 350c -2,2 -3,3 -5,5z" class="c13"/>
<path d="M 65, 420c -2,2 -3,3 -5,5z" class="c8"/>
<path d="M 65, 490c -2,2 -3,3 -5,5z" class="c2"/>
<path d="M 65, 500c -2,2 -3,3 -5,5z" class="c11"/>
<path d="M 65, 620c -2,2 -3,3 -5,5z" class="c20"/>
<path d="M 65, 690c -2,2 -3,3 -5,5z" class="c18"/>
<path d="M 65, 820c -2,2 -3,3 -5,5z" class="c3"/>
<path d="M 65, 890c -2,2 -3,3 -5,5z" class="c5"/>
<path d="M 65, 1010c -2,2 -3,3 -5,5z" class="c15"/>
<path d="M 65, 1090c -2,2 -3,3 -5,5z" class="c15"/>
<path d="M 65, 1210c -2,2 -3,3 -5,5z" class="c5"/>
<path d="M 65, 1280c -2,2 -3,3 -5,5z" class="c3"/>
<path d="M 65, 1410c -2,2 -3,3 -5,5z" class="c18"/>
<path d="M 65, 1480c -2,2 -3,3 -5,5z" class="c19"/>
<path d="M 65, 1600c -2,2 -3,3 -5,5z" class="c13"/>
<path d="M 65, 1610c -2,2 -3,3 -5,5z" class="c2"/>
<path d="M 65, 1680c -2,2 -3,3 -5,5z" class="c8"/>
<path d="M 65, 1800c -2,2 -3,3 -5,5z" class="c22"/>
<path d="M 65, 1870c -2,2 -3,3 -5,5z" class="c17"/>
<path d="M 65, 1880c -2,2 -3,3 -5,5z" class="c23"/>
<path d="M 65, 2000c -2,2 -3,3 -5,5z" class="c4"/>
<path d="M 65, 2070c -2,2 -3,3 -5,5z" class="c4"/>
<path d="M 75, 320c -2,2 -3,3 -5,5z" class="c13"/>
<path d="M 75, 330c -2,2 -3,3 -5,5z" class="c19"/>
<path d="M 75, 340c 23,-47 22,-60 80,-60c 29,0 -6,24 -10,30c -4,6 -5,30 -10,35c -6,6 -51,0 -60,0z" class="c16"/>
<path d="M 75, 420c 23,0 1,5 -5,5z" class="c2"/>
<path d="M 75, 490c -2,2 -3,3 -5,5z" class="c5"/>
<path d="M 75, 610c -2,2 -3,3 -5,5z" class="c15"/>
<path d="M 75, 690c -2,2 -3,3 -5,5z" class="c15"/>
<path d="M 75, 810c -2,2 -3,3 -5,5z" class="c5"/>
<path d="M 75, 880c -2,2 -3,3 -5,5z" class="c3"/>
<path d="M 75, 1010c -2,2 -3,3 -5,5z" class="c18"/>
<path d="M 75, 1080c -2,2 -3,3 -5,5z" class="c20"/>
<path d="M 75, 1200c -2,2 -3,3 -5,5z" class="c11"/>
<path d="M 75, 1210c -2,2 -3,3 -5,5z" class="c2"/>
<path d="M 75, 1280c -2,2 -3,3 -5,5z" class="c8"/>
<path d="M 75, 1400c -2,2 -3,3 -5,5z" class="c22"/>
<path d="M 75, 1470c -2,2 -3,3 -5,5z" class="c17"/>
<path d="M 75, 1480c -2,2 -3,3 -5,5z" class="c23"/>
<path d="M 75, 1600c -2,2 -3,3 -5,5z" class="c4"/>
<path d="M 75, 1670c -2,2 -3,3 -5,5z" class="c4"/>
<path d="M 75, 1790c -2,2 -3,3 -5,5z" class="c23"/>
<path d="M 75, 1800c -2,2 -3,3 -5,5z" class="c17"/>
<path d="M 75, 1870c -2,2 -3,3 -5,5z" class="c21"/>
<path d="M 75, 1990c -2,2 -3,3 -5,5z" class="c9"/>
<path d="M 75, 2070c -2,2 -3,3 -5,5z" class="c11"/>
<path d="M 75, 2210c -2,2 -3,3 -5,5z" class="c23"/>
<path d="M 75, 2220c -2,2 -3,3 -5,5z" class="c20"/>
<path d="M 75, 2230c -2,2 -3,3 -5,5z" class="c24"/>
<path d="M 85, 310c -2,2 -3,3 -5,5z" class="c21"/>
<path d="M 85, 410c -2,2 -3,3 -5,5z" class="c10"/>
<path d="M 85, 480c -2,2 -3,3 -5,5z" class="c3"/>
<path d="M 85, 490c -2,2 -3,3 -5,5z" class="c10"/>
<path d="M 85, 610c -2,2 -3,3 -5,5z" class="c18"/>
<path d="M 85, 680c -2,2 -3,3 -5,5z" class="c19"/>
<path d="M 85, 800c -2,2 -3,3 -5,5z" class="c13"/>
<path d="M 85, 810c -2,2 -3,3 -5,5z" class="c2"/>
<path d="M 85, 880c -2,2 -3,3 -5,5z" class="c9"/>
<path d="M 85, 1000c -2,2 -3,3 -5,5z" class="c22"/>
<path d="M 85, 1070c -2,2 -3,3 -5,5z" class="c17"/>
<path d="M 85, 1080c -2,2 -3,3 -5,5z" class="c23"/>
<path d="M 85, 1200c -2,2 -3,3 -5,5z" class="c4"/>
<path d="M 85, 1270c -2,2 -3,3 -5,5z" class="c4"/>
<path d="M 85, 1400c -2,2 -3,3 -5,5z" class="c17"/>
<path d="M 85, 1470c -2,2 -3,3 -5,5z" class="c21"/>
<path d="M 85, 1590c -2,2 -3,3 -5,5z" class="c11"/>
<path d="M 85, 1660c -2,2 -3,3 -5,5z" class="c2"/>
<path d="M 85, 1670c -2,2 -3,3 -5,5z" class="c11"/>
<path d="M 85, 1790c -2,2 -3,3 -5,5z" class="c20"/>
<path d="M 85, 1860c -2,2 -3,3 -5,5z" class="c17"/>
<path d="M 85, 1990c -2,2 -3,3 -5,5z" class="c3"/>
<path d="M 85, 2060c -2,2 -3,3 -5,5z" class="c4"/>
<path d="M 85, 2200c -2,2 -3,3 -5,5z" class="c21"/>
<path d="M 85, 2210c -2,2 -3,3 -5,5z" class="c17"/>
<path d="M 85, 2220c 5,-9 20,-55 25,-60c 6,-6 66,4 65,5c -3,5 -27,30 -30,35c -20,30 15,25 -60,25z" class="c16"/>
<path d="M 85, 2230c 85,0 40,5 -5,5z" class="c14"/>
<path d="M 95, 290c -2,2 -3,3 -5,5z" class="c15"/>
<path d="M 95, 300c -2,2 -3,3 -5,5z" class="c17"/>
<path d="M 95, 420c -2,2 -3,3 -5,5z" class="c8"/>
<path d="M 95, 480c 6,-13 13,-13 -5,5z" class="c9"/>
<path d="M 95, 600c 3,7 18,27 10,35c -4,4 4,-21 -15,-30z" class="c22"/>
<path d="M 95, 670c -2,2 -3,3 -5,5z" class="c17"/>
<path d="M 95, 800c -2,2 -3,3 -5,5z" class="c4"/>
<path d="M 95, 870c -2,2 -3,3 -5,5z" class="c4"/>
<path d="M 95, 990c -2,2 -3,3 -5,5z" class="c23"/>
<path d="M 95, 1000c -2,2 -3,3 -5,5z" class="c17"/>
<path d="M 95, 1070c -2,2 -3,3 -5,5z" class="c22"/>
<path d="M 95, 1190c -2,2 -3,3 -5,5z" class="c9"/>
<path d="M 95, 1260c -2,2 -3,3 -5,5z" class="c2"/>
<path d="M 95, 1270c -2,2 -3,3 -5,5z" class="c11"/>
<path d="M 95, 1390c -2,2 -3,3 -5,5z" class="c20"/>
<path d="M 95, 1460c 6,-13 -3,-52 5,-60c 5,-5 5,25 5,25c 0,6 3,26 0,30c -3,5 -11,6 -15,10z" class="c18"/>
<path d="M 95, 1590c 22,0 6,66 5,65c -8,-8 1,-47 -5,-60z" class="c3"/>
<path d="M 95, 1660c -2,2 -3,3 -5,5z" class="c5"/>
<path d="M 95, 1780c -2,2 -3,3 -5,5z" class="c13"/>
<path d="M 95, 1860c -2,2 -3,3 -5,5z" class="c15"/>
<path d="M 95, 1980c -2,2 -3,3 -5,5z" class="c8"/>
<path d="M 95, 2050c 6,-13 -3,-52 5,-60c 5,-5 5,25 5,25c 0,6 3,26 0,30c -3,5 -11,6 -15,10z" class="c2"/>
<path d="M 95, 2060c -2,2 -3,3 -5,5z" class="c11"/>
<path d="M 95, 2180c -2,2 -3,3 -5,5z" class="c15"/>
<path d="M 95, 2190c -2,2 -3,3 -5,5z" class="c18"/>
<path d="M 105, 270c -2,2 -3,3 -5,5z" class="c23"/>
<path d="M 105, 280c 8,-16 28,-10 45,-10c 0,0 30,0 25,5c -14,14 -56,-9 -75,10z" class="c19"/>
<path d="M 105, 430c -2,2 -3,3 -5,5z" class="c9"/>
<path d="M 105, 440c 0,21 -5,34 -5,5z" class="c8"/>
<path d="M 105, 600c -2,2 -3,3 -5,5z" class="c15"/>
<path d="M 105, 640c 0,21 -5,34 -5,5z" class="c21"/>
<path d="M 105, 670c -2,2 -3,3 -5,5z" class="c15"/>
<path d="M 105, 800c 0,6 -5,28 -5,5z" class="c7"/>
<path d="M 105, 820c 0,41 -5,67 -5,5z" class="c5"/>
<path d="M 105, 870c -2,2 -3,3 -5,5z" class="c13"/>
<path d="M 105, 990c -2,2 -3,3 -5,5z" class="c15"/>
<path d="M 105, 1000c 0,76 -5,88 -5,5z" class="c20"/>
<path d="M 105, 1190c -2,2 -3,3 -5,5z" class="c5"/>
<path d="M 105, 1200c 0,45 -5,90 -5,5z" class="c4"/>
<path d="M 105, 1260c -2,2 -3,3 -5,5z" class="c8"/>
<path d="M 105, 1390c -2,2 -3,3 -5,5z" class="c19"/>
<path d="M 105, 1460c -2,2 -3,3 -5,5z" class="c15"/>
<path d="M 105, 1580c -2,2 -3,3 -5,5z" class="c8"/>
<path d="M 105, 1660c -2,2 -3,3 -5,5z" class="c10"/>
<path d="M 105, 1780c -2,2 -3,3 -5,5z" class="c20"/>
<path d="M 105, 1790c 0,45 -5,90 -5,5z" class="c17"/>
<path d="M 105, 1850c -2,2 -3,3 -5,5z" class="c20"/>
<path d="M 105, 1970c 5,11 22,53 10,65c -4,4 -4,-53 -5,-55c -2,-3 -7,-3 -10,-5z" class="c10"/>
<path d="M 105, 1980c -2,2 -3,3 -5,5z" class="c3"/>
<path d="M 105, 2050c -2,2 -3,3 -5,5z" class="c6"/>
<path d="M 105, 2160c -2,2 -3,3 -5,5z" class="c13"/>
<path d="M 105, 2170c -2,2 -3,3 -5,5z" class="c19"/>
<path d="M 115, 2040c -2,2 -3,3 -5,5z" class="c11"/>
<path d="M 115, 2150c -2,2 -3,3 -5,5z" class="c21"/>
<path d="M 125, 2150c 85,0 40,5 -5,5z" class="c17"/>
<path d="M 135, 350c 6,-13 13,-13 -5,5z" class="c13"/>
<path d="M 145, 330c -2,2 -3,3 -5,5z" class="c18"/>
<path d="M 145, 2220c -2,2 -3,3 -5,5z" class="c18"/>
<path d="M 145, 2230c -2,2 -3,3 -5,5z" class="c24"/>
<path d="M 155, 310c -2,2 -3,3 -5,5z" class="c18"/>
<path d="M 155, 320c -2,2 -3,3 -5,5z" class="c15"/>
<path d="M 155, 2200c -2,2 -3,3 -5,5z" class="c17"/>
<path d="M 155, 2210c -2,2 -3,3 -5,5z" class="c22"/>
<path d="M 165, 300c -2,2 -3,3 -5,5z" class="c21"/>
<path d="M 165, 2190c -2,2 -3,3 -5,5z" class="c20"/>
<path d="M 175, 280c -2,2 -3,3 -5,5z" class="c18"/>
<path d="M 175, 290c -2,2 -3,3 -5,5z" class="c13"/>
<path d="M 175, 2170c -2,2 -3,3 -5,5z" class="c18"/>
<path d="M 175, 2180c -2,2 -3,3 -5,5z" class="c13"/>
<path d="M 185, 2150c -2,2 -3,3 -5,5z" class="c18"/>
<path d="M 185, 2160c -2,2 -3,3 -5,5z" class="c15"/>
<path d="M 265, 330c -2,2 -3,3 -5,5z" class="c10"/>
<path d="M 265, 340c -2,2 -3,3 -5,5z" class="c4"/>
<path d="M 265, 350c 83,0 71,5 -5,5z" class="c11"/>
<path d="M 265, 2230c -2,2 -3,3 -5,5z" class="c24"/>
<path d="M 275, 320c -2,2 -3,3 -5,5z" class="c8"/>
<path d="M 275, 330c -2,2 -3,3 -5,5z" class="c2"/>
<path d="M 275, 340c 18,-35 22,-60 70,-60c 7,0 15,-5 20,0c 4,4 -23,32 -25,35c -4,6 -1,14 -5,20c -11,17 -48,10 -65,10z" class="c1"/>
<path d="M 275, 2210c -2,2 -3,3 -5,5z" class="c8"/>
<path d="M 275, 2220c -2,2 -3,3 -5,5z" class="c3"/>
<path d="M 275, 2230c 4,0 27,-3 30,0c 4,4 -33,5 -35,5z" class="c10"/>
<path d="M 285, 300c -2,2 -3,3 -5,5z" class="c9"/>
<path d="M 285, 310c -2,2 -3,3 -5,5z" class="c4"/>
<path d="M 285, 2190c -2,2 -3,3 -5,5z" class="c11"/>
<path d="M 285, 2200c -2,2 -3,3 -5,5z" class="c4"/>
<path d="M 285, 2210c 3,-5 24,-49 25,-50c 5,-5 68,-4 55,15c -2,3 -8,2 -10,5c -2,3 1,7 0,10c -11,32 -49,25 -75,25z" class="c1"/>
<path d="M 285, 2220c 10,0 42,5 50,0c 3,-2 2,-8 5,-10c 2,-1 6,3 5,5c -9,17 -50,10 -65,10z" class="c2"/>
<path d="M 295, 280c -2,2 -3,3 -5,5z" class="c10"/>
<path d="M 295, 290c -2,2 -3,3 -5,5z" class="c4"/>
<path d="M 295, 2170c -2,2 -3,3 -5,5z" class="c10"/>
<path d="M 295, 2180c -2,2 -3,3 -5,5z" class="c5"/>
<path d="M 305, 270c -2,2 -3,3 -5,5z" class="c8"/>
<path d="M 305, 280c -2,2 -3,3 -5,5z" class="c2"/>
<path d="M 305, 2160c -2,2 -3,3 -5,5z" class="c8"/>
<path d="M 305, 2170c -2,2 -3,3 -5,5z" class="c2"/>
<path d="M 315, 270c 85,0 40,5 -5,5z" class="c3"/>
<path d="M 315, 2150c -2,2 -3,3 -5,5z" class="c4"/>
<path d="M 315, 2230c 29,0 16,5 -5,5z" class="c14"/>
<path d="M 325, 2140c 83,0 71,5 -5,5z" class="c10"/>
<path d="M 325, 2150c 8,0 45,-5 50,0c 4,4 0,17 -5,15c -3,-2 -2,-8 -5,-10c -6,-4 -32,0 -40,0z" class="c2"/>
<path d="M 335, 340c -2,2 -3,3 -5,5z" class="c3"/>
<path d="M 335, 350c -2,2 -3,3 -5,5z" class="c10"/>
<path d="M 345, 320c -2,2 -3,3 -5,5z" class="c2"/>
<path d="M 345, 330c -2,2 -3,3 -5,5z" class="c8"/>
<path d="M 345, 2220c -2,2 -3,3 -5,5z" class="c8"/>
<path d="M 355, 310c -2,2 -3,3 -5,5z" class="c5"/>
<path d="M 355, 320c -2,2 -3,3 -5,5z" class="c10"/>
<path d="M 355, 2200c -2,2 -3,3 -5,5z" class="c4"/>
<path d="M 355, 2210c -2,2 -3,3 -5,5z" class="c10"/>
<path d="M 365, 290c -2,2 -3,3 -5,5z" class="c4"/>
<path d="M 365, 300c -2,2 -3,3 -5,5z" class="c11"/>
<path d="M 365, 2180c -2,2 -3,3 -5,5z" class="c3"/>
<path d="M 365, 2190c -2,2 -3,3 -5,5z" class="c11"/>
<path d="M 375, 270c -2,2 -3,3 -5,5z" class="c4"/>
<path d="M 375, 280c -2,2 -3,3 -5,5z" class="c8"/>
<path d="M 375, 2170c -2,2 -3,3 -5,5z" class="c8"/>
<path d="M 385, 2150c -2,2 -3,3 -5,5z" class="c5"/>
<path d="M 385, 2160c -2,2 -3,3 -5,5z" class="c10"/>
<path d="M 465, 330c -2,2 -3,3 -5,5z" class="c15"/>
<path d="M 465, 340c -2,2 -3,3 -5,5z" class="c17"/>
<path d="M 465, 350c 83,0 71,5 -5,5z" class="c13"/>
<path d="M 465, 2220c -2,2 -3,3 -5,5z" class="c13"/>
<path d="M 465, 2230c 117,0 56,5 -5,5z" class="c24"/>
<path d="M 475, 310c -2,2 -3,3 -5,5z" class="c13"/>
<path d="M 475, 320c -2,2 -3,3 -5,5z" class="c18"/>
<path d="M 475, 330c 3,-5 24,-49 25,-50c 6,-6 66,4 65,5c -3,5 -12,5 -15,10c -7,11 -14,43 -25,50c -8,6 -49,1 -55,-5z" class="c16"/>
<path d="M 475, 2200c -2,2 -3,3 -5,5z" class="c13"/>
<path d="M 475, 2210c -2,2 -3,3 -5,5z" class="c19"/>
<path d="M 475, 2220c 83,0 71,5 -5,5z" class="c17"/>
<path d="M 485, 300c -2,2 -3,3 -5,5z" class="c20"/>
<path d="M 485, 2190c -2,2 -3,3 -5,5z" class="c21"/>
<path d="M 485, 2200c 33,-67 -25,45 15,-15c 4,-6 5,-30 10,-35c 9,-9 74,-4 55,25c -2,3 -13,7 -15,10c -15,23 -4,30 -40,30c -14,0 -30,7 -30,-10z" class="c16"/>
<path d="M 495, 280c -2,2 -3,3 -5,5z" class="c15"/>
<path d="M 495, 290c -2,2 -3,3 -5,5z" class="c17"/>
<path d="M 495, 2170c -2,2 -3,3 -5,5z" class="c15"/>
<path d="M 495, 2180c -2,2 -3,3 -5,5z" class="c17"/>
<path d="M 505, 270c -2,2 -3,3 -5,5z" class="c19"/>
<path d="M 505, 2150c -2,2 -3,3 -5,5z" class="c13"/>
<path d="M 505, 2160c -2,2 -3,3 -5,5z" class="c18"/>
<path d="M 515, 270c 85,0 40,5 -5,5z" class="c17"/>
<path d="M 515, 2140c 83,0 71,5 -5,5z" class="c23"/>
<path d="M 535, 340c -2,2 -3,3 -5,5z" class="c21"/>
<path d="M 545, 320c -2,2 -3,3 -5,5z" class="c19"/>
<path d="M 545, 330c -2,2 -3,3 -5,5z" class="c23"/>
<path d="M 545, 2210c -2,2 -3,3 -5,5z" class="c18"/>
<path d="M 545, 2220c -2,2 -3,3 -5,5z" class="c23"/>
<path d="M 555, 300c -2,2 -3,3 -5,5z" class="c18"/>
<path d="M 555, 310c -2,2 -3,3 -5,5z" class="c15"/>
<path d="M 555, 2190c -2,2 -3,3 -5,5z" class="c18"/>
<path d="M 555, 2200c -2,2 -3,3 -5,5z" class="c15"/>
<path d="M 565, 290c -2,2 -3,3 -5,5z" class="c21"/>
<path d="M 565, 2180c -2,2 -3,3 -5,5z" class="c21"/>
<path d="M 575, 270c -2,2 -3,3 -5,5z" class="c21"/>
<path d="M 575, 280c -2,2 -3,3 -5,5z" class="c23"/>
<path d="M 575, 2150c -2,2 -3,3 -5,5z" class="c17"/>
<path d="M 575, 2160c -2,2 -3,3 -5,5z" class="c19"/>
<path d="M 575, 2170c -2,2 -3,3 -5,5z" class="c13"/>
<path d="M 585, 2150c -2,2 -3,3 -5,5z" class="c13"/>
<path d="M 655, 340c -2,2 -3,3 -5,5z" class="c11"/>
<path d="M 665, 320c -2,2 -3,3 -5,5z" class="c13"/>
<path d="M 665, 330c -2,2 -3,3 -5,5z" class="c4"/>
<path d="M 665, 340c 83,0 71,5 -5,5z" class="c2"/>
<path d="M 665, 350c 83,0 71,5 -5,5z" class="c10"/>
<path d="M 665, 2210c -2,2 -3,3 -5,5z" class="c13"/>
<path d="M 665, 2220c -2,2 -3,3 -5,5z" class="c5"/>
<path d="M 665, 2230c -2,2 -3,3 -5,5z" class="c24"/>
<path d="M 675, 310c -2,2 -3,3 -5,5z" class="c5"/>
<path d="M 675, 320c -2,2 -3,3 -5,5z" class="c2"/>
<path d="M 675, 330c 5,-10 16,-44 25,-50c 6,-4 14,2 20,0c 8,-2 26,-19 35,-10c 8,8 -18,37 -20,40c -20,30 15,25 -60,25z" class="c1"/>
<path d="M 675, 2200c -2,2 -3,3 -5,5z" class="c7"/>
<path d="M 675, 2210c 10,21 59,6 50,15c -6,6 -50,0 -55,-5z" class="c2"/>
<path d="M 685, 290c -2,2 -3,3 -5,5z" class="c8"/>
<path d="M 685, 300c -2,2 -3,3 -5,5z" class="c3"/>
<path d="M 685, 2180c -2,2 -3,3 -5,5z" class="c9"/>
<path d="M 685, 2190c -2,2 -3,3 -5,5z" class="c3"/>
<path d="M 685, 2200c 13,-26 26,-50 60,-50c 7,0 15,-5 20,0c 10,10 -18,27 -20,30c -4,6 -5,30 -10,35c -6,6 -50,0 -55,-5z" class="c1"/>
<path d="M 685, 2230c -2,2 -3,3 -5,5z" class="c24"/>
<path d="M 695, 270c -2,2 -3,3 -5,5z" class="c11"/>
<path d="M 695, 280c -2,2 -3,3 -5,5z" class="c4"/>
<path d="M 695, 2160c -2,2 -3,3 -5,5z" class="c13"/>
<path d="M 695, 2170c -2,2 -3,3 -5,5z" class="c4"/>
<path d="M 705, 270c 29,0 16,5 -5,5z" class="c2"/>
<path d="M 705, 2150c -2,2 -3,3 -5,5z" class="c7"/>
<path d="M 705, 2160c 6,-13 13,-13 -5,5z" class="c2"/>
<path d="M 715, 2140c 83,0 71,5 -5,5z" class="c11"/>
<path d="M 735, 330c -2,2 -3,3 -5,5z" class="c4"/>
<path d="M 735, 340c -2,2 -3,3 -5,5z" class="c11"/>
<path d="M 735, 2220c -2,2 -3,3 -5,5z" class="c4"/>
<path d="M 745, 310c -2,2 -3,3 -5,5z" class="c2"/>
<path d="M 745, 320c -2,2 -3,3 -5,5z" class="c9"/>
<path d="M 745, 2200c -2,2 -3,3 -5,5z" class="c2"/>
<path d="M 745, 2210c -2,2 -3,3 -5,5z" class="c8"/>
<path d="M 755, 290c -2,2 -3,3 -5,5z" class="c2"/>
<path d="M 755, 300c -2,2 -3,3 -5,5z" class="c5"/>
<path d="M 755, 2180c -2,2 -3,3 -5,5z" class="c2"/>
<path d="M 755, 2190c -2,2 -3,3 -5,5z" class="c5"/>
<path d="M 765, 270c -2,2 -3,3 -5,5z" class="c2"/>
<path d="M 765, 280c -2,2 -3,3 -5,5z" class="c4"/>
<path d="M 765, 290c -2,2 -3,3 -5,5z" class="c11"/>
<path d="M 765, 2170c -2,2 -3,3 -5,5z" class="c4"/>
<path d="M 765, 2180c -2,2 -3,3 -5,5z" class="c11"/>
<path d="M 775, 270c -2,2 -3,3 -5,5z" class="c9"/>
<path d="M 775, 2150c -2,2 -3,3 -5,5z" class="c3"/>
<path d="M 775, 2160c -2,2 -3,3 -5,5z" class="c8"/>
<path d="M 855, 330c -2,2 -3,3 -5,5z" class="c23"/>
<path d="M 855, 340c -2,2 -3,3 -5,5z" class="c20"/>
<path d="M 865, 320c -2,2 -3,3 -5,5z" class="c22"/>
<path d="M 865, 330c 10,21 59,6 50,15c -6,6 -50,0 -55,-5z" class="c17"/>
<path d="M 865, 2210c -2,2 -3,3 -5,5z" class="c15"/>
<path d="M 865, 2220c -2,2 -3,3 -5,5z" class="c19"/>
<path d="M 875, 300c -2,2 -3,3 -5,5z" class="c15"/>
<path d="M 875, 310c -2,2 -3,3 -5,5z" class="c18"/>
<path d="M 875, 320c 3,-5 24,-49 25,-50c 5,-5 68,-4 55,15c -7,11 -22,23 -30,35c -5,7 6,11 -5,15c -5,2 -47,3 -50,0c -2,-2 0,-7 0,-10z" class="c16"/>
<path d="M 875, 2190c -2,2 -3,3 -5,5z" class="c13"/>
<path d="M 875, 2200c -2,2 -3,3 -5,5z" class="c18"/>
<path d="M 875, 2210c 18,-37 23,-60 70,-60c 7,0 15,-5 20,0c 4,4 -9,9 -10,15c -10,41 14,-21 -10,15c -2,3 1,7 0,10c -11,32 -49,25 -75,25z" class="c16"/>
<path d="M 875, 2220c 85,0 40,5 -5,5z" class="c18"/>
<path d="M 885, 280c -2,2 -3,3 -5,5z" class="c23"/>
<path d="M 885, 290c -2,2 -3,3 -5,5z" class="c19"/>
<path d="M 885, 2170c -2,2 -3,3 -5,5z" class="c23"/>
<path d="M 885, 2180c -2,2 -3,3 -5,5z" class="c20"/>
<path d="M 895, 270c -2,2 -3,3 -5,5z" class="c21"/>
<path d="M 895, 280c -2,2 -3,3 -5,5z" class="c17"/>
<path d="M 895, 2160c -2,2 -3,3 -5,5z" class="c22"/>
<path d="M 895, 2170c -2,2 -3,3 -5,5z" class="c17"/>
<path d="M 905, 260c 83,0 71,5 -5,5z" class="c24"/>
<path d="M 905, 2140c -2,2 -3,3 -5,5z" class="c23"/>
<path d="M 905, 2150c -2,2 -3,3 -5,5z" class="c17"/>
<path d="M 915, 2140c 83,0 71,5 -5,5z" class="c15"/>
<path d="M 925, 340c -2,2 -3,3 -5,5z" class="c19"/>
<path d="M 935, 320c -2,2 -3,3 -5,5z" class="c17"/>
<path d="M 935, 330c -2,2 -3,3 -5,5z" class="c22"/>
<path d="M 935, 2210c -2,2 -3,3 -5,5z" class="c17"/>
<path d="M 935, 2220c -2,2 -3,3 -5,5z" class="c22"/>
<path d="M 945, 310c -2,2 -3,3 -5,5z" class="c20"/>
<path d="M 945, 320c -2,2 -3,3 -5,5z" class="c23"/>
<path d="M 945, 2200c -2,2 -3,3 -5,5z" class="c19"/>
<path d="M 945, 2210c -2,2 -3,3 -5,5z" class="c23"/>
<path d="M 955, 290c -2,2 -3,3 -5,5z" class="c18"/>
<path d="M 955, 300c -2,2 -3,3 -5,5z" class="c13"/>
<path d="M 955, 2180c -2,2 -3,3 -5,5z" class="c18"/>
<path d="M 955, 2190c -2,2 -3,3 -5,5z" class="c13"/>
<path d="M 965, 270c -2,2 -3,3 -5,5z" class="c17"/>
<path d="M 965, 280c -2,2 -3,3 -5,5z" class="c22"/>
<path d="M 965, 2160c -2,2 -3,3 -5,5z" class="c17"/>
<path d="M 965, 2170c -2,2 -3,3 -5,5z" class="c22"/>
<path d="M 975, 270c -2,2 -3,3 -5,5z" class="c23"/>
<path d="M 975, 2150c -2,2 -3,3 -5,5z" class="c20"/>
<path d="M 975, 2160c -2,2 -3,3 -5,5z" class="c23"/>
<path d="M 1055, 330c -2,2 -3,3 -5,5z" class="c8"/>
<path d="M 1055, 340c -2,2 -3,3 -5,5z" class="c4"/>
<path d="M 1055, 2220c -2,2 -3,3 -5,5z" class="c10"/>
<path d="M 1065, 310c -2,2 -3,3 -5,5z" class="c11"/>
<path d="M 1065, 320c -2,2 -3,3 -5,5z" class="c4"/>
<path d="M 1065, 330c 33,-67 -25,45 15,-15c 22,-33 -10,-45 55,-45c 7,0 15,-5 20,0c 4,4 -9,9 -10,15c -10,41 14,-21 -10,15c -2,3 1,7 0,10c -11,32 -49,25 -75,25z" class="c1"/>
<path d="M 1065, 340c -2,2 -3,3 -5,5z" class="c2"/>
<path d="M 1065, 2200c -2,2 -3,3 -5,5z" class="c11"/>
<path d="M 1065, 2210c 10,21 59,6 50,15c -6,6 -50,0 -55,-5z" class="c4"/>
<path d="M 1075, 300c -2,2 -3,3 -5,5z" class="c5"/>
<path d="M 1075, 310c -2,2 -3,3 -5,5z" class="c2"/>
<path d="M 1075, 340c 62,0 36,5 -5,5z" class="c3"/>
<path d="M 1075, 2190c -2,2 -3,3 -5,5z" class="c5"/>
<path d="M 1075, 2200c -2,2 -3,3 -5,5z" class="c2"/>
<path d="M 1075, 2210c 18,-35 22,-60 70,-60c 7,0 15,-5 20,0c 3,3 -20,20 -20,20c -2,3 1,7 0,10c -13,39 -37,35 -75,35z" class="c1"/>
<path d="M 1085, 280c -2,2 -3,3 -5,5z" class="c8"/>
<path d="M 1085, 290c -2,2 -3,3 -5,5z" class="c2"/>
<path d="M 1085, 2170c -2,2 -3,3 -5,5z" class="c8"/>
<path d="M 1085, 2180c -2,2 -3,3 -5,5z" class="c2"/>
<path d="M 1095, 260c -2,2 -3,3 -5,5z" class="c24"/>
<path d="M 1095, 270c -2,2 -3,3 -5,5z" class="c3"/>
<path d="M 1095, 2150c 6,-13 13,-13 -5,5z" class="c11"/>
<path d="M 1095, 2160c -2,2 -3,3 -5,5z" class="c4"/>
<path d="M 1105, 2150c -2,2 -3,3 -5,5z" class="c2"/>
<path d="M 1115, 2140c 85,0 40,5 -5,5z" class="c8"/>
<path d="M 1125, 330c -2,2 -3,3 -5,5z" class="c2"/>
<path d="M 1125, 340c -2,2 -3,3 -5,5z" class="c7"/>
<path d="M 1125, 2220c -2,2 -3,3 -5,5z" class="c5"/>
<path d="M 1135, 320c -2,2 -3,3 -5,5z" class="c4"/>
<path d="M 1135, 330c -2,2 -3,3 -5,5z" class="c11"/>
<path d="M 1135, 2210c -2,2 -3,3 -5,5z" class="c4"/>
<path d="M 1135, 2220c -2,2 -3,3 -5,5z" class="c10"/>
<path d="M 1145, 300c -2,2 -3,3 -5,5z" class="c3"/>
<path d="M 1145, 310c -2,2 -3,3 -5,5z" class="c11"/>
<path d="M 1145, 2190c -2,2 -3,3 -5,5z" class="c3"/>
<path d="M 1145, 2200c -2,2 -3,3 -5,5z" class="c9"/>
<path d="M 1145, 2220c 16,0 90,-10 100,0c 4,4 -10,5 -15,5c -30,0 -60,0 -90,0z" class="c24"/>
<path d="M 1155, 280c -2,2 -3,3 -5,5z" class="c2"/>
<path d="M 1155, 290c -2,2 -3,3 -5,5z" class="c7"/>
<path d="M 1155, 2170c -2,2 -3,3 -5,5z" class="c2"/>
<path d="M 1155, 2180c -2,2 -3,3 -5,5z" class="c5"/>
<path d="M 1165, 270c -2,2 -3,3 -5,5z" class="c5"/>
<path d="M 1165, 280c -2,2 -3,3 -5,5z" class="c13"/>
<path d="M 1165, 2160c -2,2 -3,3 -5,5z" class="c4"/>
<path d="M 1165, 2170c -2,2 -3,3 -5,5z" class="c13"/>
<path d="M 1175, 2140c 0,6 -5,28 -5,5z" class="c11"/>
<path d="M 1225, 1210c 9,-17 18,-12 30,-20c 2,-1 15,-22 20,-20c 5,3 13,10 10,15c -1,3 -46,30 -65,30z" class="c12"/>
<path d="M 1245, 340c -2,2 -3,3 -5,5z" class="c13"/>
<path d="M 1255, 320c -2,2 -3,3 -5,5z" class="c23"/>
<path d="M 1255, 330c -2,2 -3,3 -5,5z" class="c19"/>
<path d="M 1255, 340c 83,0 71,5 -5,5z" class="c18"/>
<path d="M 1255, 2220c -2,2 -3,3 -5,5z" class="c15"/>
<path d="M 1265, 310c -2,2 -3,3 -5,5z" class="c21"/>
<path d="M 1265, 320c 33,-67 -25,45 15,-15c 4,-6 5,-30 10,-35c 6,-6 66,4 65,5c -3,5 -27,30 -30,35c -4,6 -1,19 -10,25c -8,6 -49,1 -55,-5z" class="c16"/>
<path d="M 1265, 2200c -2,2 -3,3 -5,5z" class="c21"/>
<path d="M 1265, 2210c 33,-67 -25,45 15,-15c 23,-35 -16,-45 65,-45c 30,0 -11,39 -15,45c -4,6 0,15 -5,20c -6,6 -51,0 -60,0z" class="c16"/>
<path d="M 1265, 2220c 85,0 40,5 -5,5z" class="c20"/>
<path d="M 1275, 290c -2,2 -3,3 -5,5z" class="c15"/>
<path d="M 1275, 300c -2,2 -3,3 -5,5z" class="c17"/>
<path d="M 1275, 2180c -2,2 -3,3 -5,5z" class="c15"/>
<path d="M 1275, 2190c -2,2 -3,3 -5,5z" class="c18"/>
<path d="M 1285, 270c -2,2 -3,3 -5,5z" class="c23"/>
<path d="M 1285, 280c -2,2 -3,3 -5,5z" class="c19"/>
<path d="M 1285, 2170c -2,2 -3,3 -5,5z" class="c19"/>
<path d="M 1295, 260c -2,2 -3,3 -5,5z" class="c14"/>
<path d="M 1295, 2150c -2,2 -3,3 -5,5z" class="c21"/>
<path d="M 1305, 260c 85,0 40,5 -5,5z" class="c23"/>
<path d="M 1305, 2140c 4,0 27,-3 30,0c 4,4 -33,5 -35,5z" class="c22"/>
<path d="M 1325, 330c -2,2 -3,3 -5,5z" class="c19"/>
<path d="M 1325, 340c -2,2 -3,3 -5,5z" class="c13"/>
<path d="M 1325, 2220c 6,-13 13,-13 -5,5z" class="c22"/>
<path d="M 1335, 310c -2,2 -3,3 -5,5z" class="c17"/>
<path d="M 1335, 320c -2,2 -3,3 -5,5z" class="c15"/>
<path d="M 1335, 2200c -2,2 -3,3 -5,5z" class="c17"/>
<path d="M 1335, 2220c 35,0 138,-6 105,5c -29,10 -79,0 -110,0z" class="c24"/>
<path d="M 1345, 300c -2,2 -3,3 -5,5z" class="c20"/>
<path d="M 1345, 2140c 29,0 16,5 -5,5z" class="c21"/>
<path d="M 1345, 2190c -2,2 -3,3 -5,5z" class="c20"/>
<path d="M 1345, 2200c -2,2 -3,3 -5,5z" class="c23"/>
<path d="M 1355, 280c -2,2 -3,3 -5,5z" class="c19"/>
<path d="M 1355, 290c -2,2 -3,3 -5,5z" class="c23"/>
<path d="M 1355, 2170c -2,2 -3,3 -5,5z" class="c19"/>
<path d="M 1355, 2180c -2,2 -3,3 -5,5z" class="c23"/>
<path d="M 1365, 260c -2,2 -3,3 -5,5z" class="c24"/>
<path d="M 1365, 270c -2,2 -3,3 -5,5z" class="c15"/>
<path d="M 1365, 2150c -2,2 -3,3 -5,5z" class="c17"/>
<path d="M 1365, 2160c -2,2 -3,3 -5,5z" class="c15"/>
<path d="M 1375, 2140c -2,2 -3,3 -5,5z" class="c13"/>
<path d="M 1445, 330c -2,2 -3,3 -5,5z" class="c10"/>
<path d="M 1445, 340c -2,2 -3,3 -5,5z" class="c8"/>
<path d="M 1455, 320c -2,2 -3,3 -5,5z" class="c7"/>
<path d="M 1455, 330c -2,2 -3,3 -5,5z" class="c2"/>
<path d="M 1455, 340c 85,0 40,5 -5,5z" class="c4"/>
<path d="M 1455, 2210c 0,6 -5,28 -5,5z" class="c8"/>
<path d="M 1465, 300c -2,2 -3,3 -5,5z" class="c11"/>
<path d="M 1465, 310c -2,2 -3,3 -5,5z" class="c3"/>
<path d="M 1465, 320c 3,-5 24,-49 25,-50c 5,-5 68,-4 55,15c -2,3 -13,7 -15,10c -15,23 -7,40 -40,40c -14,0 -30,7 -30,-10z" class="c1"/>
<path d="M 1465, 2190c -2,2 -3,3 -5,5z" class="c11"/>
<path d="M 1465, 2200c -2,2 -3,3 -5,5z" class="c3"/>
<path d="M 1465, 2210c 23,-47 22,-60 80,-60c 3,0 8,-2 10,0c 3,3 -38,63 -45,65c -13,4 -36,0 -50,0z" class="c1"/>
<path d="M 1465, 2220c 29,0 16,5 -5,5z" class="c5"/>
<path d="M 1475, 260c 23,0 1,5 -5,5z" class="c24"/>
<path d="M 1475, 280c -2,2 -3,3 -5,5z" class="c13"/>
<path d="M 1475, 290c -2,2 -3,3 -5,5z" class="c5"/>
<path d="M 1475, 2170c -2,2 -3,3 -5,5z" class="c10"/>
<path d="M 1475, 2180c -2,2 -3,3 -5,5z" class="c5"/>
<path d="M 1485, 270c -2,2 -3,3 -5,5z" class="c5"/>
<path d="M 1485, 280c -2,2 -3,3 -5,5z" class="c2"/>
<path d="M 1485, 2160c -2,2 -3,3 -5,5z" class="c7"/>
<path d="M 1485, 2170c -2,2 -3,3 -5,5z" class="c2"/>
<path d="M 1495, 260c 4,0 27,-3 30,0c 4,4 -33,5 -35,5z" class="c11"/>
<path d="M 1495, 2140c -2,2 -3,3 -5,5z" class="c11"/>
<path d="M 1495, 2150c -2,2 -3,3 -5,5z" class="c3"/>
<path d="M 1495, 2220c 29,0 16,5 -5,5z" class="c7"/>
<path d="M 1505, 2140c 23,0 1,5 -5,5z" class="c7"/>
<path d="M 1515, 340c -2,2 -3,3 -5,5z" class="c5"/>
<path d="M 1525, 320c -2,2 -3,3 -5,5z" class="c2"/>
<path d="M 1525, 330c -2,2 -3,3 -5,5z" class="c8"/>
<path d="M 1525, 2140c 17,0 26,-4 35,10c 1,2 7,3 5,5c -4,4 -9,-9 -15,-10c -9,-2 -21,0 -30,0z" class="c5"/>
<path d="M 1525, 2210c -2,2 -3,3 -5,5z" class="c2"/>
<path d="M 1525, 2220c -2,2 -3,3 -5,5z" class="c9"/>
<path d="M 1535, 260c 29,0 16,5 -5,5z" class="c9"/>
<path d="M 1535, 300c -2,2 -3,3 -5,5z" class="c2"/>
<path d="M 1535, 310c -2,2 -3,3 -5,5z" class="c5"/>
<path d="M 1535, 320c -2,2 -3,3 -5,5z" class="c10"/>
<path d="M 1535, 2190c -2,2 -3,3 -5,5z" class="c2"/>
<path d="M 1535, 2200c -2,2 -3,3 -5,5z" class="c5"/>
<path d="M 1535, 2210c -2,2 -3,3 -5,5z" class="c10"/>
<path d="M 1535, 2220c 16,0 90,-10 100,0c 4,4 -10,5 -15,5c -30,0 -60,0 -90,0z" class="c24"/>
<path d="M 1545, 290c -2,2 -3,3 -5,5z" class="c4"/>
<path d="M 1545, 300c -2,2 -3,3 -5,5z" class="c11"/>
<path d="M 1545, 2180c -2,2 -3,3 -5,5z" class="c3"/>
<path d="M 1545, 2190c -2,2 -3,3 -5,5z" class="c11"/>
<path d="M 1555, 270c -2,2 -3,3 -5,5z" class="c2"/>
<path d="M 1555, 280c -2,2 -3,3 -5,5z" class="c8"/>
<path d="M 1555, 2160c -2,2 -3,3 -5,5z" class="c2"/>
<path d="M 1555, 2170c -2,2 -3,3 -5,5z" class="c7"/>
<path d="M 1565, 2140c -2,2 -3,3 -5,5z" class="c7"/>
<path d="M 1575, 260c 16,0 90,-10 100,0c 4,4 -10,5 -15,5c -30,0 -60,0 -90,0z" class="c24"/>
<path d="M 1645, 330c -2,2 -3,3 -5,5z" class="c22"/>
<path d="M 1645, 340c -2,2 -3,3 -5,5z" class="c21"/>
<path d="M 1655, 310c -2,2 -3,3 -5,5z" class="c13"/>
<path d="M 1655, 320c -2,2 -3,3 -5,5z" class="c18"/>
<path d="M 1655, 330c 18,-37 23,-60 70,-60c 7,0 15,-5 20,0c 4,4 -9,9 -10,15c -10,41 14,-21 -10,15c -2,3 1,7 0,10c -11,32 -49,25 -75,25z" class="c16"/>
<path d="M 1655, 340c 4,0 27,-3 30,0c 4,4 -33,5 -35,5z" class="c19"/>
<path d="M 1655, 2200c -2,2 -3,3 -5,5z" class="c13"/>
<path d="M 1655, 2210c -2,2 -3,3 -5,5z" class="c19"/>
<path d="M 1655, 2220c 83,0 71,5 -5,5z" class="c22"/>
<path d="M 1665, 290c -2,2 -3,3 -5,5z" class="c23"/>
<path d="M 1665, 300c -2,2 -3,3 -5,5z" class="c20"/>
<path d="M 1665, 2190c -2,2 -3,3 -5,5z" class="c21"/>
<path d="M 1665, 2200c -2,2 -3,3 -5,5z" class="c17"/>
<path d="M 1665, 2210c 5,-9 20,-55 25,-60c 6,-6 66,4 65,5c -3,5 -12,5 -15,10c -4,6 -1,14 -5,20c -2,3 -8,2 -10,5c -20,30 15,25 -60,25z" class="c16"/>
<path d="M 1675, 280c -2,2 -3,3 -5,5z" class="c22"/>
<path d="M 1675, 290c -2,2 -3,3 -5,5z" class="c17"/>
<path d="M 1675, 2170c -2,2 -3,3 -5,5z" class="c15"/>
<path d="M 1675, 2180c -2,2 -3,3 -5,5z" class="c17"/>
<path d="M 1685, 260c -2,2 -3,3 -5,5z" class="c23"/>
<path d="M 1685, 270c -2,2 -3,3 -5,5z" class="c18"/>
<path d="M 1685, 2150c -2,2 -3,3 -5,5z" class="c13"/>
<path d="M 1685, 2160c -2,2 -3,3 -5,5z" class="c18"/>
<path d="M 1695, 260c 29,0 16,5 -5,5z" class="c15"/>
<path d="M 1695, 340c 23,0 1,5 -5,5z" class="c20"/>
<path d="M 1695, 2140c -2,2 -3,3 -5,5z" class="c22"/>
<path d="M 1705, 2140c 85,0 40,5 -5,5z" class="c20"/>
<path d="M 1715, 330c -2,2 -3,3 -5,5z" class="c17"/>
<path d="M 1715, 340c -2,2 -3,3 -5,5z" class="c22"/>
<path d="M 1725, 260c 4,0 27,-3 30,0c 4,4 -33,5 -35,5z" class="c22"/>
<path d="M 1725, 320c -2,2 -3,3 -5,5z" class="c20"/>
<path d="M 1725, 330c -2,2 -3,3 -5,5z" class="c23"/>
<path d="M 1725, 2210c -2,2 -3,3 -5,5z" class="c19"/>
<path d="M 1735, 300c -2,2 -3,3 -5,5z" class="c17"/>
<path d="M 1735, 310c -2,2 -3,3 -5,5z" class="c15"/>
<path d="M 1735, 1170c 8,0 56,39 50,45c -12,12 -55,-29 -55,-40z" class="c12"/>
<path d="M 1735, 2190c -2,2 -3,3 -5,5z" class="c17"/>
<path d="M 1735, 2200c -2,2 -3,3 -5,5z" class="c15"/>
<path d="M 1735, 2220c 16,0 90,-10 100,0c 4,4 -10,5 -15,5c -30,0 -60,0 -90,0z" class="c24"/>
<path d="M 1745, 280c -2,2 -3,3 -5,5z" class="c17"/>
<path d="M 1745, 290c -2,2 -3,3 -5,5z" class="c21"/>
<path d="M 1745, 2170c -2,2 -3,3 -5,5z" class="c17"/>
<path d="M 1745, 2180c -2,2 -3,3 -5,5z" class="c21"/>
<path d="M 1755, 270c -2,2 -3,3 -5,5z" class="c20"/>
<path d="M 1755, 280c -2,2 -3,3 -5,5z" class="c23"/>
<path d="M 1755, 2160c -2,2 -3,3 -5,5z" class="c19"/>
<path d="M 1755, 2170c -2,2 -3,3 -5,5z" class="c13"/>
<path d="M 1765, 2140c -2,2 -3,3 -5,5z" class="c21"/>
<path d="M 1765, 2150c -2,2 -3,3 -5,5z" class="c15"/>
<path d="M 1775, 260c 16,0 90,-10 100,0c 4,4 -10,5 -15,5c -30,0 -60,0 -90,0z" class="c24"/>
<path d="M 1835, 340c -2,2 -3,3 -5,5z" class="c10"/>
<path d="M 1845, 320c -2,2 -3,3 -5,5z" class="c13"/>
<path d="M 1845, 330c -2,2 -3,3 -5,5z" class="c4"/>
<path d="M 1845, 340c 83,0 71,5 -5,5z" class="c5"/>
<path d="M 1845, 2210c 0,6 -5,28 -5,5z" class="c10"/>
<path d="M 1855, 310c -2,2 -3,3 -5,5z" class="c5"/>
<path d="M 1855, 320c -2,2 -3,3 -5,5z" class="c2"/>
<path d="M 1855, 330c 18,-35 22,-60 70,-60c 7,0 15,-5 20,0c 3,3 -20,20 -20,20c -2,3 1,7 0,10c -13,39 -37,35 -75,35z" class="c1"/>
<path d="M 1855, 2200c -2,2 -3,3 -5,5z" class="c7"/>
<path d="M 1855, 2210c -2,2 -3,3 -5,5z" class="c2"/>
<path d="M 1855, 2220c 83,0 71,5 -5,5z" class="c9"/>
<path d="M 1865, 290c -2,2 -3,3 -5,5z" class="c9"/>
<path d="M 1865, 300c -2,2 -3,3 -5,5z" class="c2"/>
<path d="M 1865, 2180c -2,2 -3,3 -5,5z" class="c9"/>
<path d="M 1865, 2190c -2,2 -3,3 -5,5z" class="c3"/>
<path d="M 1865, 2200c 3,-5 24,-49 25,-50c 5,-5 68,-4 55,15c -2,3 -13,7 -15,10c -15,23 -7,40 -40,40c -14,0 -30,7 -30,-10z" class="c1"/>
<path d="M 1875, 270c -2,2 -3,3 -5,5z" class="c11"/>
<path d="M 1875, 280c -2,2 -3,3 -5,5z" class="c4"/>
<path d="M 1875, 2160c -2,2 -3,3 -5,5z" class="c11"/>
<path d="M 1875, 2170c -2,2 -3,3 -5,5z" class="c5"/>
<path d="M 1885, 260c -2,2 -3,3 -5,5z" class="c9"/>
<path d="M 1885, 270c -2,2 -3,3 -5,5z" class="c2"/>
<path d="M 1885, 2150c 6,-13 13,-13 -5,5z" class="c5"/>
<path d="M 1885, 2160c -2,2 -3,3 -5,5z" class="c2"/>
<path d="M 1895, 260c 85,0 40,5 -5,5z" class="c7"/>
<path d="M 1905, 2140c 85,0 40,5 -5,5z" class="c4"/>
<path d="M 1915, 330c -2,2 -3,3 -5,5z" class="c4"/>
<path d="M 1915, 340c -2,2 -3,3 -5,5z" class="c13"/>
<path d="M 1925, 310c -2,2 -3,3 -5,5z" class="c3"/>
<path d="M 1925, 320c -2,2 -3,3 -5,5z" class="c8"/>
<path d="M 1925, 2200c -2,2 -3,3 -5,5z" class="c2"/>
<path d="M 1925, 2210c -2,2 -3,3 -5,5z" class="c8"/>
<path d="M 1925, 2220c 35,0 138,-6 105,5c -29,10 -79,0 -110,0z" class="c24"/>
<path d="M 1935, 290c -2,2 -3,3 -5,5z" class="c2"/>
<path d="M 1935, 300c -2,2 -3,3 -5,5z" class="c7"/>
<path d="M 1935, 310c -2,2 -3,3 -5,5z" class="c10"/>
<path d="M 1935, 2180c -2,2 -3,3 -5,5z" class="c2"/>
<path d="M 1935, 2190c -2,2 -3,3 -5,5z" class="c5"/>
<path d="M 1935, 2200c -2,2 -3,3 -5,5z" class="c10"/>
<path d="M 1945, 280c -2,2 -3,3 -5,5z" class="c4"/>
<path d="M 1945, 290c -2,2 -3,3 -5,5z" class="c13"/>
<path d="M 1945, 2170c -2,2 -3,3 -5,5z" class="c4"/>
<path d="M 1945, 2180c -2,2 -3,3 -5,5z" class="c11"/>
<path d="M 1955, 260c 0,6 -5,28 -5,5z" class="c9"/>
<path d="M 1955, 2150c -2,2 -3,3 -5,5z" class="c3"/>
<path d="M 1955, 2160c -2,2 -3,3 -5,5z" class="c8"/>
<path d="M 1965, 260c 35,0 138,-6 105,5c -29,10 -79,0 -110,0z" class="c24"/>
<path d="M 1965, 2140c -2,2 -3,3 -5,5z" class="c9"/>
<path d="M 2035, 330c -2,2 -3,3 -5,5z" class="c23"/>
<path d="M 2035, 340c -2,2 -3,3 -5,5z" class="c13"/>
<path d="M 2045, 320c -2,2 -3,3 -5,5z" class="c21"/>
<path d="M 2045, 330c 33,-67 -25,45 15,-15c 23,-35 -16,-45 65,-45c 30,0 -11,39 -15,45c -4,6 0,15 -5,20c -6,6 -51,0 -60,0z" class="c16"/>
<path d="M 2045, 340c 85,0 40,5 -5,5z" class="c21"/>
<path d="M 2045, 2210c -2,2 -3,3 -5,5z" class="c22"/>
<path d="M 2045, 2220c 83,0 71,5 -5,5z" class="c23"/>
<path d="M 2055, 300c -2,2 -3,3 -5,5z" class="c15"/>
<path d="M 2055, 310c -2,2 -3,3 -5,5z" class="c18"/>
<path d="M 2055, 2190c -2,2 -3,3 -5,5z" class="c13"/>
<path d="M 2055, 2200c -2,2 -3,3 -5,5z" class="c18"/>
<path d="M 2055, 2210c 18,-37 23,-60 70,-60c 7,0 15,-5 20,0c 4,4 -9,9 -10,15c -10,41 14,-21 -10,15c -2,3 1,7 0,10c -11,32 -49,25 -75,25z" class="c16"/>
<path d="M 2065, 280c -2,2 -3,3 -5,5z" class="c23"/>
<path d="M 2065, 290c -2,2 -3,3 -5,5z" class="c19"/>
<path d="M 2065, 2180c -2,2 -3,3 -5,5z" class="c20"/>
<path d="M 2075, 270c -2,2 -3,3 -5,5z" class="c21"/>
<path d="M 2075, 2160c -2,2 -3,3 -5,5z" class="c22"/>
<path d="M 2075, 2170c -2,2 -3,3 -5,5z" class="c17"/>
<path d="M 2085, 260c -2,2 -3,3 -5,5z" class="c22"/>
<path d="M 2085, 2140c -2,2 -3,3 -5,5z" class="c13"/>
<path d="M 2085, 2150c 8,-16 28,-10 45,-10c 0,0 30,0 25,5c -14,14 -56,-9 -75,10z" class="c18"/>
<path d="M 2095, 260c 85,0 40,5 -5,5z" class="c21"/>
<path d="M 2105, 340c -2,2 -3,3 -5,5z" class="c22"/>
<path d="M 2115, 320c -2,2 -3,3 -5,5z" class="c17"/>
<path d="M 2115, 330c -2,2 -3,3 -5,5z" class="c21"/>
<path d="M 2115, 2210c -2,2 -3,3 -5,5z" class="c17"/>
<path d="M 2115, 2220c -2,2 -3,3 -5,5z" class="c24"/>
<path d="M 2125, 310c -2,2 -3,3 -5,5z" class="c20"/>
<path d="M 2125, 2200c -2,2 -3,3 -5,5z" class="c20"/>
<path d="M 2125, 2210c -2,2 -3,3 -5,5z" class="c23"/>
<path d="M 2135, 290c -2,2 -3,3 -5,5z" class="c18"/>
<path d="M 2135, 300c -2,2 -3,3 -5,5z" class="c13"/>
<path d="M 2135, 2180c -2,2 -3,3 -5,5z" class="c18"/>
<path d="M 2135, 2190c -2,2 -3,3 -5,5z" class="c13"/>
<path d="M 2145, 270c -2,2 -3,3 -5,5z" class="c17"/>
<path d="M 2145, 280c -2,2 -3,3 -5,5z" class="c22"/>
<path d="M 2145, 2160c -2,2 -3,3 -5,5z" class="c17"/>
<path d="M 2145, 2170c -2,2 -3,3 -5,5z" class="c22"/>
<path d="M 2155, 260c -2,2 -3,3 -5,5z" class="c23"/>
<path d="M 2155, 2150c -2,2 -3,3 -5,5z" class="c20"/>
<path d="M 2165, 260c 16,0 90,-10 100,0c 4,4 -10,5 -15,5c -30,0 -60,0 -90,0z" class="c24"/>
<path d="M 2165, 2140c -2,2 -3,3 -5,5z" class="c23"/>
<path d="M 2235, 330c 2,3 2,8 5,10c 2,1 59,1 55,5c -12,12 -54,-5 -65,-10z" class="c8"/>
<path d="M 2235, 340c -2,2 -3,3 -5,5z" class="c9"/>
<path d="M 2235, 2220c -2,2 -3,3 -5,5z" class="c24"/>
<path d="M 2245, 310c -2,2 -3,3 -5,5z" class="c11"/>
<path d="M 2245, 320c -2,2 -3,3 -5,5z" class="c4"/>
<path d="M 2245, 330c 18,-37 23,-60 70,-60c 7,0 15,-5 20,0c 4,4 -9,9 -10,15c -10,41 14,-21 -10,15c -2,3 1,7 0,10c -11,32 -49,25 -75,25z" class="c1"/>
<path d="M 2245, 2200c -2,2 -3,3 -5,5z" class="c13"/>
<path d="M 2245, 2210c -2,2 -3,3 -5,5z" class="c4"/>
<path d="M 2245, 2220c 83,0 71,5 -5,5z" class="c10"/>
<path d="M 2255, 290c -2,2 -3,3 -5,5z" class="c10"/>
<path d="M 2255, 300c -2,2 -3,3 -5,5z" class="c5"/>
<path d="M 2255, 2180c -2,2 -3,3 -5,5z" class="c10"/>
<path d="M 2255, 2190c -2,2 -3,3 -5,5z" class="c5"/>
<path d="M 2255, 2200c 33,-67 -25,45 15,-15c 4,-6 5,-30 10,-35c 6,-6 66,4 65,5c -3,5 -12,5 -15,10c -7,11 -14,43 -25,50c -8,6 -49,1 -55,-5z" class="c1"/>
<path d="M 2265, 280c -2,2 -3,3 -5,5z" class="c8"/>
<path d="M 2265, 290c -2,2 -3,3 -5,5z" class="c2"/>
<path d="M 2265, 2170c -2,2 -3,3 -5,5z" class="c8"/>
<path d="M 2265, 2180c -2,2 -3,3 -5,5z" class="c2"/>
<path d="M 2275, 260c -2,2 -3,3 -5,5z" class="c11"/>
<path d="M 2275, 270c 7,-15 62,-17 50,-5c -10,10 -40,-5 -55,10z" class="c4"/>
<path d="M 2275, 2150c -2,2 -3,3 -5,5z" class="c11"/>
<path d="M 2275, 2160c -2,2 -3,3 -5,5z" class="c4"/>
<path d="M 2285, 2140c -2,2 -3,3 -5,5z" class="c5"/>
<path d="M 2295, 2140c 85,0 40,5 -5,5z" class="c3"/>
<path d="M 2305, 330c -2,2 -3,3 -5,5z" class="c2"/>
<path d="M 2305, 340c -2,2 -3,3 -5,5z" class="c11"/>
<path d="M 2315, 320c -2,2 -3,3 -5,5z" class="c4"/>
<path d="M 2315, 330c -2,2 -3,3 -5,5z" class="c10"/>
<path d="M 2315, 2210c -2,2 -3,3 -5,5z" class="c4"/>
<path d="M 2315, 2220c -2,2 -3,3 -5,5z" class="c24"/>
<path d="M 2325, 300c -2,2 -3,3 -5,5z" class="c3"/>
<path d="M 2325, 310c -2,2 -3,3 -5,5z" class="c9"/>
<path d="M 2325, 2190c -2,2 -3,3 -5,5z" class="c3"/>
<path d="M 2325, 2200c -2,2 -3,3 -5,5z" class="c8"/>
<path d="M 2335, 260c 23,0 1,5 -5,5z" class="c5"/>
<path d="M 2335, 280c -2,2 -3,3 -5,5z" class="c2"/>
<path d="M 2335, 290c -2,2 -3,3 -5,5z" class="c8"/>
<path d="M 2335, 2170c -2,2 -3,3 -5,5z" class="c2"/>
<path d="M 2335, 2180c -2,2 -3,3 -5,5z" class="c7"/>
<path d="M 2345, 270c -2,2 -3,3 -5,5z" class="c4"/>
<path d="M 2345, 280c -2,2 -3,3 -5,5z" class="c10"/>
<path d="M 2345, 2160c -2,2 -3,3 -5,5z" class="c4"/>
<path d="M 2345, 2170c -2,2 -3,3 -5,5z" class="c13"/>
<path d="M 2355, 260c -2,2 -3,3 -5,5z" class="c10"/>
<path d="M 2355, 2140c -2,2 -3,3 -5,5z" class="c5"/>
<path d="M 2355, 2150c -2,2 -3,3 -5,5z" class="c9"/>
<path d="M 2425, 760c -2,2 -3,3 -5,5z" class="c13"/>
<path d="M 2435, 320c -2,2 -3,3 -5,5z" class="c13"/>
<path d="M 2435, 330c -2,2 -3,3 -5,5z" class="c19"/>
<path d="M 2435, 340c 83,0 71,5 -5,5z" class="c15"/>
<path d="M 2435, 2210c -2,2 -3,3 -5,5z" class="c23"/>
<path d="M 2445, 310c -2,2 -3,3 -5,5z" class="c21"/>
<path d="M 2445, 320c 33,-67 -25,45 15,-15c 4,-6 5,-30 10,-35c 6,-6 66,4 65,5c -3,5 -27,30 -30,35c -4,6 -1,19 -10,25c -8,6 -49,1 -55,-5z" class="c16"/>
<path d="M 2445, 2200c -2,2 -3,3 -5,5z" class="c21"/>
<path d="M 2445, 2210c -2,2 -3,3 -5,5z" class="c17"/>
<path d="M 2445, 2220c 83,0 71,5 -5,5z" class="c24"/>
<path d="M 2455, 290c -2,2 -3,3 -5,5z" class="c15"/>
<path d="M 2455, 300c -2,2 -3,3 -5,5z" class="c17"/>
<path d="M 2455, 2180c -2,2 -3,3 -5,5z" class="c13"/>
<path d="M 2455, 2190c -2,2 -3,3 -5,5z" class="c18"/>
<path d="M 2455, 2200c 5,-10 16,-44 25,-50c 7,-5 68,-4 55,15c -7,11 -22,23 -30,35c -5,7 6,11 -5,15c -5,2 -47,3 -50,0c -2,-2 0,-7 0,-10z" class="c16"/>
<path d="M 2465, 270c -2,2 -3,3 -5,5z" class="c13"/>
<path d="M 2465, 280c -2,2 -3,3 -5,5z" class="c18"/>
<path d="M 2465, 2160c -2,2 -3,3 -5,5z" class="c13"/>
<path d="M 2465, 2170c -2,2 -3,3 -5,5z" class="c19"/>
<path d="M 2475, 260c -2,2 -3,3 -5,5z" class="c21"/>
<path d="M 2475, 2150c -2,2 -3,3 -5,5z" class="c21"/>
<path d="M 2485, 260c 85,0 40,5 -5,5z" class="c18"/>
<path d="M 2485, 2140c -2,2 -3,3 -5,5z" class="c18"/>
<path d="M 2495, 2140c 8,0 45,-5 50,0c 4,4 0,17 -5,15c -3,-2 -2,-8 -5,-10c -6,-4 -32,0 -40,0z" class="c17"/>
<path d="M 2505, 330c -2,2 -3,3 -5,5z" class="c18"/>
<path d="M 2505, 340c -2,2 -3,3 -5,5z" class="c23"/>
<path d="M 2515, 310c -2,2 -3,3 -5,5z" class="c17"/>
<path d="M 2515, 320c -2,2 -3,3 -5,5z" class="c15"/>
<path d="M 2515, 2200c -2,2 -3,3 -5,5z" class="c17"/>
<path d="M 2515, 2210c -2,2 -3,3 -5,5z" class="c22"/>
<path d="M 2525, 300c -2,2 -3,3 -5,5z" class="c21"/>
<path d="M 2525, 2190c -2,2 -3,3 -5,5z" class="c20"/>
<path d="M 2535, 280c -2,2 -3,3 -5,5z" class="c19"/>
<path d="M 2535, 290c -2,2 -3,3 -5,5z" class="c13"/>
<path d="M 2535, 2170c -2,2 -3,3 -5,5z" class="c18"/>
<path d="M 2535, 2180c -2,2 -3,3 -5,5z" class="c13"/>
<path d="M 2545, 260c -2,2 -3,3 -5,5z" class="c20"/>
<path d="M 2545, 270c -2,2 -3,3 -5,5z" class="c15"/>
<path d="M 2545, 2160c -2,2 -3,3 -5,5z" class="c15"/>
<path d="M 2555, 2140c -2,2 -3,3 -5,5z" class="c21"/>
<path d="M 2625, 330c -2,2 -3,3 -5,5z" class="c13"/>
<path d="M 2625, 340c -2,2 -3,3 -5,5z" class="c10"/>
<path d="M 2635, 320c -2,2 -3,3 -5,5z" class="c8"/>
<path d="M 2635, 330c -2,2 -3,3 -5,5z" class="c2"/>
<path d="M 2635, 340c 83,0 71,5 -5,5z" class="c11"/>
<path d="M 2635, 2210c -2,2 -3,3 -5,5z" class="c8"/>
<path d="M 2645, 300c -2,2 -3,3 -5,5z" class="c9"/>
<path d="M 2645, 310c -2,2 -3,3 -5,5z" class="c3"/>
<path d="M 2645, 320c 3,-5 24,-49 25,-50c 5,-5 68,-4 55,15c -7,11 -22,23 -30,35c -5,7 6,11 -5,15c -5,2 -47,3 -50,0c -2,-2 0,-7 0,-10z" class="c1"/>
<path d="M 2645, 2190c -2,2 -3,3 -5,5z" class="c11"/>
<path d="M 2645, 2200c -2,2 -3,3 -5,5z" class="c4"/>
<path d="M 2645, 2210c 18,-37 23,-60 70,-60c 7,0 15,-5 20,0c 4,4 -9,9 -10,15c -10,41 14,-21 -10,15c -2,3 1,7 0,10c -11,32 -49,25 -75,25z" class="c1"/>
<path d="M 2655, 280c -2,2 -3,3 -5,5z" class="c13"/>
<path d="M 2655, 290c -2,2 -3,3 -5,5z" class="c4"/>
<path d="M 2655, 2170c -2,2 -3,3 -5,5z" class="c10"/>
<path d="M 2655, 2180c -2,2 -3,3 -5,5z" class="c5"/>
<path d="M 2665, 270c -2,2 -3,3 -5,5z" class="c7"/>
<path d="M 2665, 280c -2,2 -3,3 -5,5z" class="c2"/>
<path d="M 2665, 2160c -2,2 -3,3 -5,5z" class="c8"/>
<path d="M 2665, 2170c -2,2 -3,3 -5,5z" class="c2"/>
<path d="M 2675, 250c 62,0 36,5 -5,5z" class="c24"/>
<path d="M 2675, 260c -2,2 -3,3 -5,5z" class="c4"/>
<path d="M 2675, 2140c -2,2 -3,3 -5,5z" class="c9"/>
<path d="M 2675, 2150c -2,2 -3,3 -5,5z" class="c3"/>
<path d="M 2685, 260c 29,0 16,5 -5,5z" class="c3"/>
<path d="M 2685, 2140c 83,0 71,5 -5,5z" class="c2"/>
<path d="M 2695, 2130c 85,0 40,5 -5,5z" class="c10"/>
<path d="M 2705, 320c -2,2 -3,3 -5,5z" class="c2"/>
<path d="M 2705, 330c -2,2 -3,3 -5,5z" class="c8"/>
<path d="M 2705, 2210c -2,2 -3,3 -5,5z" class="c2"/>
<path d="M 2715, 260c 7,0 15,-5 20,0c 4,4 0,17 -5,15c -26,-13 16,-10 -15,-10z" class="c2"/>
<path d="M 2715, 310c -2,2 -3,3 -5,5z" class="c5"/>
<path d="M 2715, 320c -2,2 -3,3 -5,5z" class="c10"/>
<path d="M 2715, 2200c -2,2 -3,3 -5,5z" class="c5"/>
<path d="M 2715, 2210c -2,2 -3,3 -5,5z" class="c13"/>
<path d="M 2725, 250c 23,0 1,5 -5,5z" class="c14"/>
<path d="M 2725, 290c -2,2 -3,3 -5,5z" class="c3"/>
<path d="M 2725, 300c -2,2 -3,3 -5,5z" class="c11"/>
<path d="M 2725, 2180c -2,2 -3,3 -5,5z" class="c3"/>
<path d="M 2725, 2190c -2,2 -3,3 -5,5z" class="c9"/>
<path d="M 2735, 280c -2,2 -3,3 -5,5z" class="c8"/>
<path d="M 2735, 2160c -2,2 -3,3 -5,5z" class="c2"/>
<path d="M 2735, 2170c -2,2 -3,3 -5,5z" class="c8"/>
<path d="M 2745, 250c -2,2 -3,3 -5,5z" class="c24"/>
<path d="M 2745, 260c -2,2 -3,3 -5,5z" class="c6"/>
<path d="M 2745, 270c -2,2 -3,3 -5,5z" class="c10"/>
<path d="M 2745, 2150c -2,2 -3,3 -5,5z" class="c5"/>
<path d="M 2745, 2160c -2,2 -3,3 -5,5z" class="c10"/>
<path d="M 2755, 2140c -2,2 -3,3 -5,5z" class="c11"/>
<path d="M 2825, 330c -2,2 -3,3 -5,5z" class="c15"/>
<path d="M 2825, 340c -2,2 -3,3 -5,5z" class="c23"/>
<path d="M 2835, 310c -2,2 -3,3 -5,5z" class="c15"/>
<path d="M 2835, 320c -2,2 -3,3 -5,5z" class="c18"/>
<path d="M 2835, 330c 18,-37 23,-60 70,-60c 7,0 15,-5 20,0c 4,4 -9,9 -10,15c -10,41 14,-21 -10,15c -2,3 1,7 0,10c -11,32 -49,25 -75,25z" class="c16"/>
<path d="M 2835, 340c 85,0 40,5 -5,5z" class="c13"/>
<path d="M 2835, 2200c -2,2 -3,3 -5,5z" class="c13"/>
<path d="M 2835, 2210c -2,2 -3,3 -5,5z" class="c19"/>
<path d="M 2845, 300c -2,2 -3,3 -5,5z" class="c20"/>
<path d="M 2845, 2190c -2,2 -3,3 -5,5z" class="c21"/>
<path d="M 2845, 2200c 33,-67 -25,45 15,-15c 9,-14 4,-38 25,-45c 11,-4 55,-5 50,10c -3,9 -16,14 -20,20c -4,6 -5,30 -10,35c -7,7 -40,-2 -50,0c -12,3 -15,19 -15,0z" class="c16"/>
<path d="M 2855, 280c -2,2 -3,3 -5,5z" class="c15"/>
<path d="M 2855, 290c -2,2 -3,3 -5,5z" class="c17"/>
<path d="M 2855, 2170c -2,2 -3,3 -5,5z" class="c15"/>
<path d="M 2855, 2180c -2,2 -3,3 -5,5z" class="c17"/>
<path d="M 2855, 2210c 62,0 36,5 -5,5z" class="c17"/>
<path d="M 2865, 260c -2,2 -3,3 -5,5z" class="c15"/>
<path d="M 2865, 270c -2,2 -3,3 -5,5z" class="c18"/>
<path d="M 2865, 2150c -2,2 -3,3 -5,5z" class="c13"/>
<path d="M 2865, 2160c -2,2 -3,3 -5,5z" class="c18"/>
<path d="M 2875, 250c 117,0 56,5 -5,5z" class="c24"/>
<path d="M 2875, 260c 83,0 71,5 -5,5z" class="c17"/>
<path d="M 2875, 2140c -2,2 -3,3 -5,5z" class="c21"/>
<path d="M 2885, 2130c 83,0 71,5 -5,5z" class="c23"/>
<path d="M 2895, 330c -2,2 -3,3 -5,5z" class="c17"/>
<path d="M 2895, 340c -2,2 -3,3 -5,5z" class="c23"/>
<path d="M 2905, 320c -2,2 -3,3 -5,5z" class="c19"/>
<path d="M 2905, 330c -2,2 -3,3 -5,5z" class="c13"/>
<path d="M 2905, 430c -2,2 -3,3 -5,5z" class="c13"/>
<path d="M 2905, 440c 0,76 -5,88 -5,5z" class="c5"/>
<path d="M 2905, 510c -2,2 -3,3 -5,5z" class="c13"/>
<path d="M 2905, 630c -2,2 -3,3 -5,5z" class="c13"/>
<path d="M 2905, 640c 0,15 -4,35 0,50c 1,6 14,11 10,15c -2,2 -3,-4 -5,-5c -16,-11 -10,-35 -10,-55z" class="c21"/>
<path d="M 2905, 700c -2,2 -3,3 -5,5z" class="c22"/>
<path d="M 2905, 830c 6,-13 13,-13 -5,5z" class="c9"/>
<path d="M 2905, 840c 0,45 -5,90 -5,5z" class="c8"/>
<path d="M 2905, 900c 23,0 1,5 -5,5z" class="c11"/>
<path d="M 2905, 1030c 0,76 -5,88 -5,5z" class="c15"/>
<path d="M 2905, 1220c -2,2 -3,3 -5,5z" class="c10"/>
<path d="M 2905, 1230c 0,76 -5,88 -5,5z" class="c11"/>
<path d="M 2905, 1420c 0,76 -5,88 -5,5z" class="c23"/>
<path d="M 2905, 2210c -2,2 -3,3 -5,5z" class="c19"/>
<path d="M 2915, 300c -2,2 -3,3 -5,5z" class="c18"/>
<path d="M 2915, 310c -2,2 -3,3 -5,5z" class="c15"/>
<path d="M 2915, 430c -2,2 -3,3 -5,5z" class="c4"/>
<path d="M 2915, 440c 8,-16 27,-11 40,-20c 6,-4 9,-11 15,-15c 2,-1 3,-7 5,-5c 4,4 2,54 0,60c -1,3 -57,36 -60,35c -10,-3 -5,-36 -5,-45z" class="c1"/>
<path d="M 2915, 500c -2,2 -3,3 -5,5z" class="c4"/>
<path d="M 2915, 630c -2,2 -3,3 -5,5z" class="c17"/>
<path d="M 2915, 640c 4,-9 56,-44 60,-40c 3,3 2,45 0,50c -4,11 -61,49 -65,45c -5,-5 0,-42 0,-50z" class="c16"/>
<path d="M 2915, 830c 15,0 44,-34 55,-30c 7,2 10,50 5,55c -5,5 -14,1 -20,5c -5,3 -35,35 -45,25c -5,-5 0,-42 0,-50z" class="c1"/>
<path d="M 2915, 890c -2,2 -3,3 -5,5z" class="c2"/>
<path d="M 2915, 1020c -2,2 -3,3 -5,5z" class="c20"/>
<path d="M 2915, 1030c 8,-16 27,-11 40,-20c 6,-4 9,-11 15,-15c 2,-1 3,-7 5,-5c 4,4 2,54 0,60c -1,3 -57,36 -60,35c -10,-3 -5,-36 -5,-45z" class="c16"/>
<path d="M 2915, 1090c -2,2 -3,3 -5,5z" class="c17"/>
<path d="M 2915, 1220c -2,2 -3,3 -5,5z" class="c3"/>
<path d="M 2915, 1230c 8,-16 27,-11 40,-20c 0,0 17,-23 20,-20c 3,3 2,45 0,50c -4,11 -61,49 -65,45c -5,-5 0,-42 0,-50z" class="c1"/>
<path d="M 2915, 1290c -2,2 -3,3 -5,5z" class="c5"/>
<path d="M 2915, 1410c -2,2 -3,3 -5,5z" class="c13"/>
<path d="M 2915, 1420c 15,0 44,-34 55,-30c 10,3 5,27 5,35c 0,7 4,14 0,20c -6,9 -19,6 -25,10c -5,3 -30,27 -35,30c -5,3 -5,-50 -5,-55z" class="c16"/>
<path d="M 2915, 1490c -2,2 -3,3 -5,5z" class="c15"/>
<path d="M 2915, 1610c -2,2 -3,3 -5,5z" class="c7"/>
<path d="M 2915, 1620c 15,0 42,-34 55,-30c 7,2 10,50 5,55c -5,5 -29,6 -35,10c -3,2 -20,30 -30,20c -5,-5 0,-42 0,-50z" class="c1"/>
<path d="M 2915, 1680c -2,2 -3,3 -5,5z" class="c2"/>
<path d="M 2915, 1810c -2,2 -3,3 -5,5z" class="c19"/>
<path d="M 2915, 1820c 8,-16 27,-11 40,-20c 6,-4 9,-11 15,-15c 4,-2 8,-12 15,-5c 3,3 2,45 0,50c -7,21 -31,16 -45,25c -2,1 -15,22 -20,20c -14,-7 -10,-33 -10,-45z" class="c16"/>
<path d="M 2915, 1870c -2,2 -3,3 -5,5z" class="c17"/>
<path d="M 2915, 1880c -2,2 -3,3 -5,5z" class="c20"/>
<path d="M 2915, 2000c -2,2 -3,3 -5,5z" class="c10"/>
<path d="M 2915, 2010c -2,2 -3,3 -5,5z" class="c3"/>
<path d="M 2915, 2020c 0,2 -1,39 -5,35c -3,-3 0,-26 0,-30z" class="c2"/>
<path d="M 2915, 2060c -2,2 -3,3 -5,5z" class="c11"/>
<path d="M 2915, 2190c -2,2 -3,3 -5,5z" class="c18"/>
<path d="M 2915, 2200c -2,2 -3,3 -5,5z" class="c15"/>
<path d="M 2925, 280c -2,2 -3,3 -5,5z" class="c17"/>
<path d="M 2925, 290c -2,2 -3,3 -5,5z" class="c21"/>
<path d="M 2925, 420c -2,2 -3,3 -5,5z" class="c9"/>
<path d="M 2925, 500c -2,2 -3,3 -5,5z" class="c11"/>
<path d="M 2925, 620c -2,2 -3,3 -5,5z" class="c20"/>
<path d="M 2925, 690c -2,2 -3,3 -5,5z" class="c18"/>
<path d="M 2925, 820c -2,2 -3,3 -5,5z" class="c3"/>
<path d="M 2925, 890c -2,2 -3,3 -5,5z" class="c5"/>
<path d="M 2925, 1010c -2,2 -3,3 -5,5z" class="c13"/>
<path d="M 2925, 1090c -2,2 -3,3 -5,5z" class="c15"/>
<path d="M 2925, 1210c -2,2 -3,3 -5,5z" class="c7"/>
<path d="M 2925, 1280c -2,2 -3,3 -5,5z" class="c2"/>
<path d="M 2925, 1290c -2,2 -3,3 -5,5z" class="c10"/>
<path d="M 2925, 1410c -2,2 -3,3 -5,5z" class="c19"/>
<path d="M 2925, 1480c -2,2 -3,3 -5,5z" class="c19"/>
<path d="M 2925, 1600c -2,2 -3,3 -5,5z" class="c10"/>
<path d="M 2925, 1610c -2,2 -3,3 -5,5z" class="c2"/>
<path d="M 2925, 1680c -2,2 -3,3 -5,5z" class="c7"/>
<path d="M 2925, 1800c -2,2 -3,3 -5,5z" class="c15"/>
<path d="M 2925, 1880c -2,2 -3,3 -5,5z" class="c13"/>
<path d="M 2925, 2000c -2,2 -3,3 -5,5z" class="c5"/>
<path d="M 2925, 2010c 15,0 42,-34 55,-30c 7,2 10,50 5,55c -5,5 -29,6 -35,10c -2,1 -15,22 -20,20c -14,-7 -10,-33 -10,-45z" class="c1"/>
<path d="M 2925, 2060c -2,2 -3,3 -5,5z" class="c3"/>
<path d="M 2925, 2170c -2,2 -3,3 -5,5z" class="c17"/>
<path d="M 2925, 2180c -2,2 -3,3 -5,5z" class="c21"/>
<path d="M 2935, 270c -2,2 -3,3 -5,5z" class="c19"/>
<path d="M 2935, 280c -2,2 -3,3 -5,5z" class="c23"/>
<path d="M 2935, 420c -2,2 -3,3 -5,5z" class="c3"/>
<path d="M 2935, 490c -2,2 -3,3 -5,5z" class="c5"/>
<path d="M 2935, 610c -2,2 -3,3 -5,5z" class="c13"/>
<path d="M 2935, 690c -2,2 -3,3 -5,5z" class="c15"/>
<path d="M 2935, 810c -2,2 -3,3 -5,5z" class="c8"/>
<path d="M 2935, 880c -2,2 -3,3 -5,5z" class="c2"/>
<path d="M 2935, 1010c -2,2 -3,3 -5,5z" class="c19"/>
<path d="M 2935, 1080c -2,2 -3,3 -5,5z" class="c19"/>
<path d="M 2935, 1200c -2,2 -3,3 -5,5z" class="c10"/>
<path d="M 2935, 1210c -2,2 -3,3 -5,5z" class="c2"/>
<path d="M 2935, 1280c -2,2 -3,3 -5,5z" class="c7"/>
<path d="M 2935, 1400c -2,2 -3,3 -5,5z" class="c15"/>
<path d="M 2935, 1480c -2,2 -3,3 -5,5z" class="c23"/>
<path d="M 2935, 1600c -2,2 -3,3 -5,5z" class="c5"/>
<path d="M 2935, 1670c -2,2 -3,3 -5,5z" class="c3"/>
<path d="M 2935, 1800c -2,2 -3,3 -5,5z" class="c17"/>
<path d="M 2935, 1870c -2,2 -3,3 -5,5z" class="c20"/>
<path d="M 2935, 1990c -2,2 -3,3 -5,5z" class="c11"/>
<path d="M 2935, 2000c -2,2 -3,3 -5,5z" class="c2"/>
<path d="M 2935, 2070c -2,2 -3,3 -5,5z" class="c11"/>
<path d="M 2935, 2160c -2,2 -3,3 -5,5z" class="c19"/>
<path d="M 2935, 2170c -2,2 -3,3 -5,5z" class="c13"/>
<path d="M 2945, 260c -2,2 -3,3 -5,5z" class="c23"/>
<path d="M 2945, 410c -2,2 -3,3 -5,5z" class="c7"/>
<path d="M 2945, 480c -2,2 -3,3 -5,5z" class="c3"/>
<path d="M 2945, 490c -2,2 -3,3 -5,5z" class="c10"/>
<path d="M 2945, 610c -2,2 -3,3 -5,5z" class="c18"/>
<path d="M 2945, 680c -2,2 -3,3 -5,5z" class="c19"/>
<path d="M 2945, 800c -2,2 -3,3 -5,5z" class="c13"/>
<path d="M 2945, 810c -2,2 -3,3 -5,5z" class="c2"/>
<path d="M 2945, 880c -2,2 -3,3 -5,5z" class="c9"/>
<path d="M 2945, 1000c -2,2 -3,3 -5,5z" class="c15"/>
<path d="M 2945, 1070c -2,2 -3,3 -5,5z" class="c17"/>
<path d="M 2945, 1080c -2,2 -3,3 -5,5z" class="c23"/>
<path d="M 2945, 1200c -2,2 -3,3 -5,5z" class="c5"/>
<path d="M 2945, 1270c -2,2 -3,3 -5,5z" class="c3"/>
<path d="M 2945, 1400c -2,2 -3,3 -5,5z" class="c17"/>
<path d="M 2945, 1470c -2,2 -3,3 -5,5z" class="c21"/>
<path d="M 2945, 1590c -2,2 -3,3 -5,5z" class="c11"/>
<path d="M 2945, 1660c -2,2 -3,3 -5,5z" class="c2"/>
<path d="M 2945, 1670c -2,2 -3,3 -5,5z" class="c11"/>
<path d="M 2945, 1790c -2,2 -3,3 -5,5z" class="c21"/>
<path d="M 2945, 1860c -2,2 -3,3 -5,5z" class="c17"/>
<path d="M 2945, 1990c -2,2 -3,3 -5,5z" class="c3"/>
<path d="M 2945, 2060c -2,2 -3,3 -5,5z" class="c4"/>
<path d="M 2945, 2070c 2,-3 2,-8 5,-10c 5,-2 2,11 5,15c 4,6 27,30 30,35c 2,3 2,42 -5,15c -5,-22 -40,-29 -40,-50z" class="c13"/>
<path d="M 2945, 2140c -2,2 -3,3 -5,5z" class="c18"/>
<path d="M 2945, 2150c -2,2 -3,3 -5,5z" class="c13"/>
<path d="M 2955, 400c -2,2 -3,3 -5,5z" class="c13"/>
<path d="M 2955, 410c -2,2 -3,3 -5,5z" class="c2"/>
<path d="M 2955, 480c -2,2 -3,3 -5,5z" class="c8"/>
<path d="M 2955, 600c -2,2 -3,3 -5,5z" class="c15"/>
<path d="M 2955, 680c -2,2 -3,3 -5,5z" class="c23"/>
<path d="M 2955, 800c -2,2 -3,3 -5,5z" class="c4"/>
<path d="M 2955, 870c -2,2 -3,3 -5,5z" class="c3"/>
<path d="M 2955, 1000c -2,2 -3,3 -5,5z" class="c17"/>
<path d="M 2955, 1070c -2,2 -3,3 -5,5z" class="c21"/>
<path d="M 2955, 1190c -2,2 -3,3 -5,5z" class="c11"/>
<path d="M 2955, 1200c -2,2 -3,3 -5,5z" class="c2"/>
<path d="M 2955, 1270c -2,2 -3,3 -5,5z" class="c11"/>
<path d="M 2955, 1390c -2,2 -3,3 -5,5z" class="c20"/>
<path d="M 2955, 1460c -2,2 -3,3 -5,5z" class="c17"/>
<path d="M 2955, 1590c -2,2 -3,3 -5,5z" class="c3"/>
<path d="M 2955, 1660c -2,2 -3,3 -5,5z" class="c5"/>
<path d="M 2955, 1780c -2,2 -3,3 -5,5z" class="c13"/>
<path d="M 2955, 1790c -2,2 -3,3 -5,5z" class="c17"/>
<path d="M 2955, 1860c -2,2 -3,3 -5,5z" class="c15"/>
<path d="M 2955, 1980c -2,2 -3,3 -5,5z" class="c8"/>
<path d="M 2955, 2050c -2,2 -3,3 -5,5z" class="c2"/>
<path d="M 2965, 400c -2,2 -3,3 -5,5z" class="c4"/>
<path d="M 2965, 470c -2,2 -3,3 -5,5z" class="c4"/>
<path d="M 2965, 600c -2,2 -3,3 -5,5z" class="c17"/>
<path d="M 2965, 670c -2,2 -3,3 -5,5z" class="c21"/>
<path d="M 2965, 790c -2,2 -3,3 -5,5z" class="c11"/>
<path d="M 2965, 860c -2,2 -3,3 -5,5z" class="c2"/>
<path d="M 2965, 870c -2,2 -3,3 -5,5z" class="c11"/>
<path d="M 2965, 990c -2,2 -3,3 -5,5z" class="c20"/>
<path d="M 2965, 1060c -2,2 -3,3 -5,5z" class="c17"/>
<path d="M 2965, 1190c -2,2 -3,3 -5,5z" class="c3"/>
<path d="M 2965, 1260c -2,2 -3,3 -5,5z" class="c5"/>
<path d="M 2965, 1380c -2,2 -3,3 -5,5z" class="c23"/>
<path d="M 2965, 1460c -2,2 -3,3 -5,5z" class="c15"/>
<path d="M 2965, 1580c -2,2 -3,3 -5,5z" class="c7"/>
<path d="M 2965, 1650c -2,2 -3,3 -5,5z" class="c2"/>
<path d="M 2965, 1660c -2,2 -3,3 -5,5z" class="c10"/>
<path d="M 2965, 1780c -2,2 -3,3 -5,5z" class="c19"/>
<path d="M 2965, 1850c -2,2 -3,3 -5,5z" class="c19"/>
<path d="M 2965, 1970c -2,2 -3,3 -5,5z" class="c10"/>
<path d="M 2965, 1980c -2,2 -3,3 -5,5z" class="c2"/>
<path d="M 2965, 2050c -2,2 -3,3 -5,5z" class="c7"/>
<path d="M 2965, 2060c 19,-39 29,36 20,45c -6,6 -22,-32 -25,-35z" class="c14"/>
<path d="M 2975, 390c -2,2 -3,3 -5,5z" class="c9"/>
<path d="M 2975, 470c -2,2 -3,3 -5,5z" class="c11"/>
<path d="M 2975, 590c -2,2 -3,3 -5,5z" class="c20"/>
<path d="M 2975, 660c -2,2 -3,3 -5,5z" class="c18"/>
<path d="M 2975, 790c -2,2 -3,3 -5,5z" class="c3"/>
<path d="M 2975, 860c 7,-15 -4,-61 5,-70c 4,-4 5,10 5,15c 0,34 8,37 -15,60z" class="c5"/>
<path d="M 2975, 980c -2,2 -3,3 -5,5z" class="c13"/>
<path d="M 2975, 1060c -2,2 -3,3 -5,5z" class="c15"/>
<path d="M 2975, 1180c -2,2 -3,3 -5,5z" class="c7"/>
<path d="M 2975, 1250c -2,2 -3,3 -5,5z" class="c2"/>
<path d="M 2975, 1260c -2,2 -3,3 -5,5z" class="c10"/>
<path d="M 2975, 1380c -2,2 -3,3 -5,5z" class="c19"/>
<path d="M 2975, 1450c -2,2 -3,3 -5,5z" class="c19"/>
<path d="M 2975, 1570c -2,2 -3,3 -5,5z" class="c10"/>
<path d="M 2975, 1580c 20,0 9,59 5,55c -6,-6 0,-40 -5,-50z" class="c2"/>
<path d="M 2975, 1650c -2,2 -3,3 -5,5z" class="c8"/>
<path d="M 2975, 1770c -2,2 -3,3 -5,5z" class="c15"/>
<path d="M 2975, 1850c -2,2 -3,3 -5,5z" class="c13"/>
<path d="M 2975, 1970c -2,2 -3,3 -5,5z" class="c5"/>
<path d="M 2975, 2040c -2,2 -3,3 -5,5z" class="c3"/>
<path d="M 2985, 260c 0,34 11,88 0,120c -12,36 -5,-77 -5,-115z" class="c24"/>
<path d="M 2985, 390c -2,2 -3,3 -5,5z" class="c11"/>
<path d="M 2985, 400c 0,45 -5,90 -5,5z" class="c8"/>
<path d="M 2985, 460c -2,2 -3,3 -5,5z" class="c9"/>
<path d="M 2985, 470c 0,31 10,81 0,110c -11,33 -5,-70 -5,-105z" class="c24"/>
<path d="M 2985, 590c -2,2 -3,3 -5,5z" class="c22"/>
<path d="M 2985, 600c 0,45 -5,90 -5,5z" class="c21"/>
<path d="M 2985, 660c -2,2 -3,3 -5,5z" class="c23"/>
<path d="M 2985, 670c 0,30 0,60 0,90c 0,5 -1,19 -5,15c -10,-10 0,-84 0,-100z" class="c24"/>
<path d="M 2985, 780c -2,2 -3,3 -5,5z" class="c11"/>
<path d="M 2985, 980c -2,2 -3,3 -5,5z" class="c22"/>
<path d="M 2985, 990c 0,45 -5,90 -5,5z" class="c19"/>
<path d="M 2985, 1050c -2,2 -3,3 -5,5z" class="c20"/>
<path d="M 2985, 1180c -2,2 -3,3 -5,5z" class="c4"/>
<path d="M 2985, 1190c 0,45 -5,90 -5,5z" class="c3"/>
<path d="M 2985, 1250c -2,2 -3,3 -5,5z" class="c8"/>
<path d="M 2985, 1370c -2,2 -3,3 -5,5z" class="c23"/>
<path d="M 2985, 1380c 0,76 -5,88 -5,5z" class="c18"/>
<path d="M 2985, 1450c -2,2 -3,3 -5,5z" class="c23"/>
<path d="M 2985, 1570c -2,2 -3,3 -5,5z" class="c7"/>
<path d="M 2985, 1640c -2,2 -3,3 -5,5z" class="c4"/>
<path d="M 2985, 1770c -2,2 -3,3 -5,5z" class="c18"/>
<path d="M 2985, 1840c -2,2 -3,3 -5,5z" class="c20"/>
<path d="M 2985, 1960c -2,2 -3,3 -5,5z" class="c11"/>
<path d="M 2985, 1970c -2,2 -3,3 -5,5z" class="c2"/>
<path d="M 2985, 2040c -2,2 -3,3 -5,5z" class="c11"/>
<path d="M 2995, 1380c 0,76 -5,88 -5,5z" class="c24"/>
<path d="M 2995, 1450c 0,31 10,81 0,110c -11,33 -5,-70 -5,-105z" class="c0"/>
<path d="M 2995, 1580c 0,45 -5,90 -5,5z" class="c10"/>
<path d="M 2995, 1640c -2,2 -3,3 -5,5z" class="c24"/>
<path d="M 2995, 1650c 0,30 0,60 0,90c 0,5 -1,19 -5,15c -10,-10 0,-84 0,-100z" class="c0"/>
<path d="M 2995, 1760c -2,2 -3,3 -5,5z" class="c24"/>
<path d="M 2995, 1770c 0,76 -5,88 -5,5z" class="c23"/>
<path d="M 2995, 1840c 0,31 10,81 0,110c -11,33 -5,-70 -5,-105z" class="c24"/>
<path d="M 2995, 1960c -2,2 -3,3 -5,5z" class="c10"/>
<path d="M 2995, 1970c -2,2 -3,3 -5,5z" class="c9"/>
<path d="M 2995, 1980c 0,2 -1,39 -5,35c -3,-3 0,-26 0,-30z" class="c11"/>
<path d="M 2995, 2020c 0,6 -5,28 -5,5z" class="c9"/>
<path d="M 2995, 2040c 0,50 0,100 0,150c 0,0 0,30 -5,25c -1,-1 0,-128 0,-170z" class="c24"/>
</g>
</svg>