<?xml version="1.0" standalone="no"?>
<!DOCTYPE svg PUBLIC "-//W3C//DTD SVG 20010904//EN"
 "http://www.w3.org/TR/2001/REC-SVG-20010904/DTD/svg10.dtd">
<svg width="200" height="100" viewBox="0 0 600 600" fill="none" xmlns="http://www.w3.org/2000/svg">

<g transform="translate(0.000000,578.000000) scale(0.100000,-0.100000)"
fill="#000000" stroke="none">
<path d="M3005 5765 c-38 -7 -106 -25 -150 -39 -163 -55 -273 -124 -645 -401
l-354 -265 -511 0 c-384 0 -514 -3 -523 -12 -9 -9 -12 -109 -12 -390 l0 -378
-400 -298 -399 -297 -3 -1825 c-2 -1004 -1 -1833 1 -1842 3 -17 163 -18 3187
-18 2535 0 3184 3 3191 13 4 6 9 835 10 1842 l2 1830 -404 300 -405 299 0 376
c0 279 -3 379 -12 388 -9 9 -138 12 -521 12 l-508 0 -342 255 c-292 218 -361
264 -472 320 -146 72 -250 109 -374 130 -101 18 -260 18 -356 0z m399 -76
c105 -22 272 -88 373 -147 54 -32 600 -430 645 -471 4 -3 -544 -6 -1217 -6
-674 0 -1225 2 -1224 5 1 7 566 426 631 468 132 86 323 155 468 171 96 11 212
4 324 -20z m2126 -1652 l0 -963 -842 -595 -843 -596 -635 -6 -635 -6 -850 602
-850 602 -3 963 -2 962 2330 0 2330 0 0 -963z m420 -102 c184 -136 343 -255
353 -265 18 -17 -16 -42 -635 -483 l-68 -48 -2 530 c-2 352 0 527 7 522 6 -4
161 -120 345 -256z m-5140 -271 c0 -289 -4 -524 -8 -522 -5 2 -167 117 -361
257 -299 215 -351 256 -339 267 22 22 692 522 701 523 4 1 7 -236 7 -525z
m-38 -592 c386 -274 934 -661 1216 -861 l513 -363 -73 -51 c-40 -28 -587 -414
-1216 -859 -628 -444 -1144 -808 -1145 -808 -2 0 -4 774 -6 1720 -1 946 -1
1720 2 1720 3 0 322 -224 709 -498z m5566 -2081 l-3 -860 -1212 857 c-667 471
-1212 859 -1212 862 0 3 546 390 1212 861 l1212 857 3 -859 c1 -472 1 -1246 0
-1718z m-1276 -51 l1215 -875 -1538 -3 c-847 -1 -2232 -1 -3079 0 l-1540 3
1226 872 1227 871 585 2 c323 0 588 3 591 6 3 3 26 4 52 2 44 -3 108 -48 1261
-878z"/>
</g>
</svg>
